<svg width="53" height="51" viewBox="0 0 53 51" fill="none" xmlns="http://www.w3.org/2000/svg">
    <path d="M33.5 7.5H7.5C4.18629 7.5 1.5 10.1863 1.5 13.5V35.5C1.5 38.8137 4.18629 41.5 7.5 41.5H33.5C36.8137 41.5 39.5 38.8137 39.5 35.5V13.5C39.5 10.1863 36.8137 7.5 33.5 7.5Z"
          stroke="#D46A5A" stroke-width="4" stroke-linecap="round" stroke-linejoin="round"/>
    <path d="M1.5 18.5H39.5" stroke="#D46A5A" stroke-width="4" stroke-linecap="round" stroke-linejoin="round"/>
    <path d="M11.5 1.5V11.5" stroke="#D46A5A" stroke-width="4" stroke-linecap="round" stroke-linejoin="round"/>
    <path d="M29.5 1.5V11.5" stroke="#D46A5A" stroke-width="4" stroke-linecap="round" stroke-linejoin="round"/>
    <path d="M41.5 49.5C47.0228 49.5 51.5 45.0228 51.5 39.5C51.5 33.9772 47.0228 29.5 41.5 29.5C35.9772 29.5 31.5 33.9772 31.5 39.5C31.5 45.0228 35.9772 49.5 41.5 49.5Z"
          fill="#F8F4ED" stroke="#D46A5A" stroke-width="4" stroke-linecap="round" stroke-linejoin="round"/>
    <path d="M41.5 35.5V39.5" stroke="#D46A5A" stroke-width="4" stroke-linecap="round" stroke-linejoin="round"/>
    <path d="M41.5 39.5L45.5 42.5" stroke="#D46A5A" stroke-width="4" stroke-linecap="round" stroke-linejoin="round"/>
    <path d="M7.50019 26.2999C8.49431 26.2999 9.30019 25.4941 9.30019 24.5C9.30019 23.5058 8.49431 22.7 7.50019 22.7C6.50608 22.7 5.7002 23.5058 5.7002 24.5C5.7002 25.4941 6.50608 26.2999 7.50019 26.2999Z"
          fill="#B8860B"/>
    <path d="M17.5002 26.2999C18.4943 26.2999 19.3002 25.4941 19.3002 24.5C19.3002 23.5058 18.4943 22.7 17.5002 22.7C16.5061 22.7 15.7002 23.5058 15.7002 24.5C15.7002 25.4941 16.5061 26.2999 17.5002 26.2999Z"
          fill="#B8860B"/>
    <path d="M27.5002 26.2999C28.4943 26.2999 29.3002 25.4941 29.3002 24.5C29.3002 23.5058 28.4943 22.7 27.5002 22.7C26.5061 22.7 25.7002 23.5058 25.7002 24.5C25.7002 25.4941 26.5061 26.2999 27.5002 26.2999Z"
          fill="#B8860B"/>
    <path d="M7.50019 34.2999C8.49431 34.2999 9.30019 33.4941 9.30019 32.5C9.30019 31.5058 8.49431 30.7 7.50019 30.7C6.50608 30.7 5.7002 31.5058 5.7002 32.5C5.7002 33.4941 6.50608 34.2999 7.50019 34.2999Z"
          fill="#B8860B"/>
    <path d="M17.5002 34.2999C18.4943 34.2999 19.3002 33.4941 19.3002 32.5C19.3002 31.5058 18.4943 30.7 17.5002 30.7C16.5061 30.7 15.7002 31.5058 15.7002 32.5C15.7002 33.4941 16.5061 34.2999 17.5002 34.2999Z"
          fill="#B8860B"/>
    <path d="M27.5002 34.2999C28.4943 34.2999 29.3002 33.4941 29.3002 32.5C29.3002 31.5058 28.4943 30.7 27.5002 30.7C26.5061 30.7 25.7002 31.5058 25.7002 32.5C25.7002 33.4941 26.5061 34.2999 27.5002 34.2999Z"
          fill="#B8860B"/>
</svg>
