<svg xmlns="http://www.w3.org/2000/svg" width="1000" height="400"
     viewBox="50 170 600 100">
    <g>
        <path d="M 311.97 223.30 C310.61,222.36 308.95,220.90 308.28,220.05 C305.59,216.63 307.75,207.08 311.54,205.62 C314.74,204.40 319.70,205.01 321.35,206.83 C323.28,208.97 323.52,213.08 321.80,214.80 C319.46,217.14 314.00,215.60 314.00,212.61 C314.00,212.06 314.60,212.43 315.33,213.43 C317.37,216.23 321.00,214.65 321.00,210.97 C321.00,205.85 315.50,204.40 311.45,208.45 C306.30,213.61 310.02,222.00 317.47,222.00 C325.59,222.00 331.43,211.60 327.54,204.08 C322.70,194.72 305.05,195.22 302.18,204.80 C301.53,206.96 300.02,209.97 298.83,211.49 C296.30,214.70 289.73,217.95 285.68,217.98 C283.23,218.00 282.95,217.71 283.54,215.75 C284.91,211.15 289.26,204.81 292.33,202.94 C294.07,201.88 297.12,201.01 299.10,201.00 C301.50,201.00 303.32,200.29 304.60,198.86 C311.14,191.52 326.74,192.99 331.96,201.44 C336.08,208.11 333.75,218.14 327.00,222.75 C322.94,225.52 315.59,225.79 311.97,223.30 ZM 345.96 222.96 C342.97,219.97 341.88,216.45 343.02,213.46 C343.83,211.31 344.28,211.08 345.97,211.98 C348.77,213.48 350.00,216.22 350.00,220.93 C350.00,225.47 348.98,225.98 345.96,222.96 ZM 360.42 223.58 C354.29,220.91 350.16,212.00 355.05,212.00 C360.08,212.00 364.37,216.05 366.44,222.75 C367.27,225.43 365.29,225.70 360.42,223.58 ZM 368.08 214.30 C366.21,213.31 364.03,211.52 363.25,210.31 C361.91,208.23 362.03,208.07 365.82,206.93 C371.03,205.37 375.68,206.37 380.00,209.96 C384.22,213.47 383.49,214.63 376.50,215.49 C372.72,215.95 370.67,215.66 368.08,214.30 ZM 345.68 208.98 C340.83,207.53 336.15,203.22 334.90,199.07 C332.81,192.09 335.96,183.88 342.24,179.94 C350.04,175.04 361.59,180.41 361.37,188.84 C361.23,194.15 358.59,197.80 354.31,198.60 C347.57,199.87 342.34,192.72 346.96,188.54 C348.66,187.00 349.43,186.88 351.50,187.82 C352.88,188.45 353.99,189.53 353.98,190.23 C353.97,191.21 353.77,191.19 353.12,190.16 C351.75,187.99 347.55,189.15 347.17,191.81 C346.73,194.96 348.67,197.00 352.12,197.00 C356.55,197.00 359.17,193.74 358.80,188.70 C358.53,184.96 358.09,184.30 354.76,182.67 C351.61,181.13 350.45,181.02 347.52,181.99 C341.02,184.14 337.64,191.82 340.35,198.30 C342.63,203.76 347.18,206.19 354.26,205.74 C361.14,205.30 365.03,202.80 366.27,198.04 C366.74,196.23 367.81,193.70 368.65,192.42 C371.28,188.39 385.00,183.29 385.00,186.33 C385.00,188.99 379.71,198.07 377.06,199.96 C375.54,201.04 372.31,202.23 369.89,202.60 C367.48,202.96 364.59,204.08 363.49,205.08 C358.84,209.29 351.83,210.83 345.68,208.98 ZM 66.50 204.83 C64.30,204.30 59.24,204.02 55.26,204.20 L 48.02 204.54 L 51.75 202.29 C53.80,201.05 57.74,199.54 60.49,198.93 C64.95,197.94 66.36,198.11 73.36,200.40 C77.70,201.83 82.39,202.76 83.86,202.49 C85.84,202.11 85.50,202.48 82.50,203.97 C78.21,206.09 72.90,206.38 66.50,204.83 ZM 94.68 204.61 C90.03,202.88 88.48,201.47 92.20,202.37 C93.92,202.78 97.68,202.11 102.58,200.51 C111.84,197.48 112.49,197.46 119.27,200.00 C128.99,203.64 129.09,204.50 119.77,204.51 C115.22,204.52 108.57,204.86 105.00,205.28 C100.26,205.83 97.46,205.64 94.68,204.61 ZM 134.20 204.80 C132.09,202.69 132.79,199.05 135.54,197.80 C137.72,196.81 138.39,196.95 140.22,198.78 C142.05,200.61 142.19,201.28 141.20,203.46 C139.95,206.21 136.31,206.91 134.20,204.80 ZM 166.00 204.85 C163.52,204.33 158.24,204.05 154.26,204.22 L 147.02 204.54 L 150.75 202.29 C152.80,201.05 156.74,199.54 159.49,198.93 C163.95,197.94 165.36,198.11 172.36,200.40 C177.26,202.02 181.20,202.75 182.86,202.36 C186.55,201.49 184.44,203.41 180.10,204.86 C176.19,206.17 172.36,206.17 166.00,204.85 ZM 193.68 204.61 C189.04,202.88 187.47,201.47 191.18,202.36 C192.89,202.77 196.80,202.06 201.96,200.39 C209.19,198.06 210.56,197.90 214.67,198.94 C218.59,199.93 227.00,203.56 227.00,204.27 C227.00,204.40 223.29,204.51 218.75,204.51 C214.21,204.52 207.57,204.86 204.00,205.28 C199.26,205.83 196.46,205.64 193.68,204.61 ZM 234.43 205.23 C232.47,203.90 232.13,201.26 233.63,199.11 C236.20,195.45 241.00,197.01 241.00,201.50 C241.00,205.14 237.33,207.22 234.43,205.23 ZM 264.00 204.85 C261.52,204.33 256.46,204.06 252.74,204.24 L 245.97 204.57 L 249.73 202.30 C251.79,201.06 255.74,199.54 258.49,198.93 C262.95,197.94 264.36,198.11 271.36,200.40 C276.26,202.02 280.20,202.75 281.86,202.36 C285.55,201.49 283.44,203.41 279.10,204.86 C275.17,206.18 270.38,206.17 264.00,204.85 ZM 390.32 204.74 C386.17,203.12 384.72,201.53 388.14,202.35 C389.81,202.75 393.70,202.03 398.64,200.40 C405.64,198.11 407.05,197.94 411.51,198.93 C414.26,199.54 418.19,201.04 420.22,202.27 L 423.92 204.50 L 415.21 204.54 C410.42,204.57 403.58,204.90 400.00,205.28 C395.66,205.74 392.45,205.56 390.32,204.74 ZM 429.63 203.89 C427.92,201.44 428.44,199.37 431.12,197.94 C434.51,196.12 437.63,198.79 437.02,203.00 C436.52,206.45 431.82,207.01 429.63,203.89 ZM 461.00 204.85 C458.52,204.33 453.46,204.06 449.75,204.24 C446.04,204.42 443.00,204.45 443.00,204.30 C443.00,204.15 445.36,202.82 448.25,201.33 C454.77,197.98 461.07,197.84 469.76,200.86 C473.29,202.08 477.22,202.80 478.76,202.51 C480.92,202.10 480.65,202.41 477.50,203.97 C473.22,206.08 468.24,206.35 461.00,204.85 ZM 488.58 204.48 C483.49,202.54 482.64,201.55 486.72,202.33 C488.87,202.73 492.51,202.09 497.72,200.38 C504.64,198.11 506.05,197.95 510.51,198.93 C513.26,199.54 517.18,201.04 519.22,202.27 L 522.92 204.50 L 514.21 204.53 C509.42,204.55 502.58,204.89 499.00,205.28 C494.21,205.80 491.47,205.59 488.58,204.48 ZM 528.98 203.96 C526.68,199.67 530.67,195.68 534.96,197.98 C537.21,199.19 537.67,202.93 535.80,204.80 C533.93,206.67 530.19,206.21 528.98,203.96 ZM 560.00 204.90 C557.53,204.36 552.46,204.06 548.75,204.24 C545.04,204.42 542.00,204.45 542.00,204.30 C542.00,203.57 550.29,199.96 554.23,198.96 C558.21,197.96 559.69,198.13 566.93,200.42 C571.72,201.93 576.24,202.78 577.81,202.45 L 580.50 201.90 L 577.65 203.53 C574.10,205.57 565.92,206.21 560.00,204.90 ZM 588.32 204.73 C584.15,203.11 582.72,201.53 586.18,202.36 C587.89,202.77 591.79,202.06 596.93,200.40 C604.17,198.07 605.50,197.92 609.83,198.96 C612.48,199.59 616.29,201.10 618.29,202.31 L 621.92 204.50 L 613.21 204.51 C608.42,204.51 601.58,204.84 598.00,205.24 C593.62,205.73 590.47,205.56 588.32,204.73 ZM 293.58 196.49 C289.35,195.01 284.16,190.51 285.32,189.34 C286.93,187.73 297.66,187.78 300.81,189.40 C305.02,191.58 306.64,194.60 304.26,195.82 C300.74,197.63 297.42,197.84 293.58,196.49 ZM 309.00 190.25 C306.63,189.06 304.73,186.95 303.12,183.71 C301.82,181.07 301.04,178.63 301.39,178.28 C302.52,177.15 311.24,181.42 313.05,184.00 C314.01,185.38 315.08,187.74 315.42,189.25 C316.17,192.60 314.29,192.89 309.00,190.25 ZM 320.73 190.25 C318.63,187.92 317.63,183.60 318.44,180.36 L 319.11 177.73 L 321.97 180.47 C325.10,183.47 326.42,187.10 325.47,190.09 C324.72,192.47 322.80,192.54 320.73,190.25 Z"
              fill="#C45C4A"/>
    </g>
</svg>