<svg width="1476" height="79" viewBox="0 0 1476 79" fill="none" xmlns="http://www.w3.org/2000/svg">
<path d="M698.88 75.9502C696.613 74.3835 693.846 71.9501 692.729 70.5335C688.246 64.8335 691.846 48.9167 698.163 46.4834C703.496 44.4501 711.763 45.4667 714.513 48.5001C717.73 52.0667 718.13 58.9168 715.263 61.7835C711.363 65.6835 702.263 63.1168 702.263 58.1334C702.263 57.2168 703.263 57.8334 704.48 59.5001C707.88 64.1668 713.93 61.5334 713.93 55.4001C713.93 46.8668 704.763 44.4501 698.013 51.2001C689.43 59.8001 695.63 73.7835 708.046 73.7835C721.58 73.7835 731.313 56.4501 724.83 43.9167C716.763 28.3167 687.346 29.1501 682.563 45.1167C681.479 48.7167 678.963 53.7334 676.979 56.2668C672.763 61.6168 661.813 67.0335 655.063 67.0835C650.979 67.1168 650.513 66.6335 651.496 63.3668C653.779 55.7001 661.029 45.1334 666.146 42.0167C669.046 40.2501 674.129 38.8001 677.429 38.7834C681.429 38.7834 684.463 37.6001 686.596 35.2167C697.496 22.9834 723.496 25.4334 732.196 39.5167C739.063 50.6334 735.18 67.3502 723.93 75.0335C717.163 79.6502 704.913 80.1002 698.88 75.9502ZM755.53 75.3835C750.546 70.4002 748.73 64.5335 750.63 59.5501C751.98 55.9668 752.73 55.5834 755.546 57.0834C760.213 59.5834 762.263 64.1501 762.263 72.0001C762.263 79.5668 760.563 80.4168 755.53 75.3835ZM779.63 76.4168C769.413 71.9668 762.53 57.1168 770.68 57.1168C779.063 57.1168 786.213 63.8668 789.663 75.0335C791.047 79.5002 787.747 79.9502 779.63 76.4168ZM792.397 60.9501C789.28 59.3001 785.646 56.3167 784.346 54.3001C782.113 50.8334 782.313 50.5667 788.63 48.6667C797.313 46.0667 805.063 47.7334 812.263 53.7167C819.297 59.5667 818.08 61.5002 806.43 62.9335C800.13 63.7002 796.713 63.2168 792.397 60.9501ZM755.063 52.0834C746.98 49.6667 739.18 42.4834 737.096 35.5667C733.613 23.9334 738.863 10.25 749.33 3.68335C762.33 -4.48332 781.58 4.46671 781.213 18.5167C780.98 27.3667 776.58 33.4501 769.446 34.7834C758.213 36.9001 749.496 24.9834 757.196 18.0167C760.03 15.45 761.313 15.25 764.763 16.8167C767.063 17.8667 768.913 19.6667 768.897 20.8334C768.88 22.4667 768.547 22.4334 767.463 20.7167C765.18 17.1001 758.18 19.0334 757.546 23.4667C756.813 28.7167 760.047 32.1167 765.797 32.1167C773.18 32.1167 777.547 26.6834 776.93 18.2834C776.48 12.05 775.747 10.95 770.197 8.23334C764.947 5.66667 763.013 5.48335 758.13 7.10002C747.296 10.6834 741.663 23.4834 746.18 34.2834C749.98 43.3834 757.563 47.4334 769.363 46.6834C780.83 45.9501 787.313 41.7834 789.38 33.8501C790.163 30.8334 791.947 26.6167 793.347 24.4834C797.73 17.7667 820.597 9.26668 820.597 14.3334C820.597 18.7667 811.78 33.9001 807.364 37.0501C804.83 38.8501 799.447 40.8334 795.413 41.4501C791.397 42.0501 786.58 43.9167 784.747 45.5834C776.997 52.6001 765.313 55.1667 755.063 52.0834ZM289.763 45.1667C286.096 44.2834 277.663 43.8167 271.029 44.1167L258.963 44.6834L265.179 40.9334C268.596 38.8667 275.163 36.3501 279.746 35.3334C287.179 33.6834 289.529 33.9667 301.196 37.7834C308.429 40.1667 316.246 41.7167 318.696 41.2667C321.996 40.6334 321.429 41.2501 316.429 43.7334C309.279 47.2667 300.429 47.7501 289.763 45.1667ZM336.729 44.8001C328.979 41.9167 326.396 39.5667 332.596 41.0667C335.463 41.7501 341.729 40.6334 349.896 37.9667C365.329 32.9167 366.413 32.8834 377.713 37.1167C393.913 43.1834 394.079 44.6167 378.546 44.6334C370.963 44.6501 359.879 45.2167 353.929 45.9167C346.029 46.8334 341.363 46.5167 336.729 44.8001ZM402.596 45.1167C399.079 41.6001 400.246 35.5334 404.829 33.4501C408.463 31.8001 409.579 32.0334 412.629 35.0834C415.679 38.1334 415.912 39.2501 414.262 42.8834C412.179 47.4668 406.113 48.6334 402.596 45.1167ZM455.596 45.2001C451.462 44.3334 442.662 43.8667 436.029 44.1501L423.962 44.6834L430.179 40.9334C433.596 38.8667 440.162 36.3501 444.746 35.3334C452.179 33.6834 454.529 33.9667 466.196 37.7834C474.362 40.4834 480.929 41.7001 483.696 41.0501C489.846 39.6001 486.329 42.8001 479.096 45.2167C472.579 47.4001 466.196 47.4001 455.596 45.2001ZM501.729 44.8001C493.996 41.9167 491.379 39.5667 497.562 41.0501C500.412 41.7334 506.929 40.5501 515.529 37.7667C527.579 33.8834 529.863 33.6167 536.713 35.3501C543.246 37.0001 557.263 43.0501 557.263 44.2334C557.263 44.4501 551.079 44.6334 543.513 44.6334C535.946 44.6501 524.879 45.2167 518.929 45.9167C511.029 46.8334 506.362 46.5167 501.729 44.8001ZM569.646 45.8334C566.379 43.6167 565.813 39.2167 568.313 35.6334C572.596 29.5334 580.596 32.1334 580.596 39.6167C580.596 45.6834 574.479 49.1501 569.646 45.8334ZM618.929 45.2001C614.796 44.3334 606.363 43.8834 600.163 44.1834L588.879 44.7334L595.146 40.9501C598.579 38.8834 605.163 36.3501 609.746 35.3334C617.179 33.6834 619.529 33.9667 631.196 37.7834C639.363 40.4834 645.929 41.7001 648.696 41.0501C654.846 39.6001 651.329 42.8001 644.096 45.2167C637.546 47.4167 629.563 47.4001 618.929 45.2001ZM668.229 31.2667C661.179 28.8001 652.529 21.3 654.463 19.35C657.146 16.6667 675.029 16.75 680.279 19.45C687.296 23.0834 689.996 28.1167 686.029 30.1501C680.163 33.1667 674.629 33.5167 668.229 31.2667ZM693.929 20.8667C689.979 18.8834 686.813 15.3667 684.129 9.96668C681.963 5.56668 680.663 1.50001 681.246 0.916672C683.129 -0.966662 697.663 6.15 700.68 10.45C702.28 12.75 704.063 16.6834 704.63 19.2C705.88 24.7834 702.746 25.2667 693.929 20.8667ZM713.48 20.8667C709.98 16.9834 708.313 9.78335 709.663 4.38335L710.78 0L715.546 4.56668C720.763 9.56668 722.963 15.6167 721.38 20.6C720.13 24.5667 716.93 24.6834 713.48 20.8667Z" fill="#C45C4A"/>
<path d="M3.46175 42.95C-2.73826 41.45 -0.15495 43.8 7.59507 46.6834C12.2284 48.4 16.895 48.7167 24.795 47.8C30.7451 47.1 41.8284 46.5334 49.4117 46.5167C64.9451 46.5 64.7785 45.0667 48.5784 39C37.2784 34.7667 36.1951 34.8 20.7617 39.85C12.595 42.5167 6.32843 43.6334 3.46175 42.95Z" fill="#C45C4A"/>
<path d="M75.6951 35.3334C71.1117 37.4167 69.9451 43.4834 73.4617 47.0001C76.9784 50.5167 83.045 49.3501 85.1284 44.7667C86.7784 41.1334 86.545 40.0167 83.495 36.9667C80.445 33.9167 79.3284 33.6834 75.6951 35.3334Z" fill="#C45C4A"/>
<path d="M106.895 46.0334C113.528 45.7501 122.328 46.2167 126.462 47.0834C137.062 49.2834 143.445 49.2834 149.962 47.1001C157.195 44.6834 160.712 41.4834 154.562 42.9334C151.795 43.5834 145.228 42.3667 137.062 39.6667C125.395 35.85 123.045 35.5667 115.612 37.2167C111.028 38.2334 104.462 40.75 101.045 42.8167L94.8284 46.5667L106.895 46.0334Z" fill="#C45C4A"/>
<path d="M168.428 42.9334C162.245 41.45 164.862 43.8 172.595 46.6834C177.228 48.4 181.895 48.7167 189.795 47.8C195.745 47.1 206.812 46.5334 214.378 46.5167C221.945 46.5167 228.128 46.3334 228.128 46.1167C228.128 44.9334 214.112 38.8834 207.578 37.2334C200.728 35.5 198.445 35.7667 186.395 39.65C177.795 42.4334 171.278 43.6167 168.428 42.9334Z" fill="#C45C4A"/>
<path d="M239.178 37.5167C236.678 41.1 237.245 45.5 240.512 47.7167C245.345 51.0334 251.462 47.5667 251.462 41.5C251.462 34.0167 243.462 31.4167 239.178 37.5167Z" fill="#C45C4A"/>
<path d="M1109.99 45.1669C1106.32 44.2835 1097.89 43.8169 1091.26 44.1169L1079.19 44.6835L1085.41 40.9335C1088.82 38.8668 1095.39 36.3502 1099.97 35.3335C1107.41 33.6835 1109.76 33.9668 1121.42 37.7835C1128.66 40.1668 1136.47 41.7169 1138.92 41.2669C1142.22 40.6335 1141.66 41.2502 1136.66 43.7335C1129.51 47.2669 1120.66 47.7502 1109.99 45.1669ZM1156.96 44.8002C1149.21 41.9169 1146.62 39.5668 1152.82 41.0668C1155.69 41.7502 1161.96 40.6335 1170.12 37.9668C1185.56 32.9168 1186.64 32.8835 1197.94 37.1169C1214.14 43.1835 1214.31 44.6168 1198.77 44.6335C1191.19 44.6502 1180.11 45.2169 1174.16 45.9169C1166.26 46.8335 1161.59 46.5169 1156.96 44.8002ZM1222.82 45.1169C1219.31 41.6002 1220.47 35.5335 1225.06 33.4502C1228.69 31.8002 1229.81 32.0335 1232.86 35.0835C1235.91 38.1335 1236.14 39.2502 1234.49 42.8835C1232.41 47.4669 1226.34 48.6335 1222.82 45.1169ZM1275.82 45.2002C1271.69 44.3335 1262.89 43.8669 1256.26 44.1502L1244.19 44.6835L1250.41 40.9335C1253.82 38.8668 1260.39 36.3502 1264.97 35.3335C1272.41 33.6835 1274.76 33.9668 1286.42 37.7835C1294.59 40.4835 1301.16 41.7002 1303.92 41.0502C1310.07 39.6002 1306.56 42.8002 1299.32 45.2169C1292.81 47.4002 1286.42 47.4002 1275.82 45.2002ZM1321.96 44.8002C1314.22 41.9169 1311.61 39.5669 1317.79 41.0502C1320.64 41.7335 1327.16 40.5502 1335.76 37.7668C1347.81 33.8835 1350.09 33.6169 1356.94 35.3502C1363.47 37.0002 1377.49 43.0502 1377.49 44.2335C1377.49 44.4502 1371.31 44.6335 1363.74 44.6335C1356.17 44.6502 1345.11 45.2169 1339.16 45.9169C1331.26 46.8335 1326.59 46.5169 1321.96 44.8002ZM1389.87 45.8335C1386.61 43.6169 1386.04 39.2168 1388.54 35.6335C1392.82 29.5335 1400.82 32.1335 1400.82 39.6169C1400.82 45.6835 1394.71 49.1502 1389.87 45.8335ZM1439.16 45.2002C1435.02 44.3335 1426.59 43.8835 1420.39 44.1835L1409.11 44.7335L1415.37 40.9502C1418.81 38.8835 1425.39 36.3502 1429.97 35.3335C1437.41 33.6835 1439.76 33.9668 1451.42 37.7835C1459.59 40.4835 1466.16 41.7002 1468.92 41.0502C1475.07 39.6002 1471.56 42.8002 1464.32 45.2169C1457.77 47.4169 1449.79 47.4002 1439.16 45.2002Z" fill="#C45C4A"/>
<path d="M823.688 42.9502C817.488 41.4502 820.072 43.8002 827.822 46.6835C832.455 48.4002 837.122 48.7168 845.022 47.8002C850.972 47.1002 862.055 46.5335 869.638 46.5168C885.172 46.5002 885.005 45.0668 868.805 39.0002C857.505 34.7668 856.422 34.8002 840.988 39.8502C832.822 42.5168 826.555 43.6335 823.688 42.9502Z" fill="#C45C4A"/>
<path d="M895.922 35.3335C891.338 37.4168 890.172 43.4835 893.688 47.0002C897.205 50.5168 903.272 49.3502 905.355 44.7668C907.005 41.1335 906.772 40.0168 903.722 36.9668C900.672 33.9168 899.555 33.6835 895.922 35.3335Z" fill="#C45C4A"/>
<path d="M927.122 46.0335C933.755 45.7502 942.555 46.2168 946.688 47.0835C957.288 49.2835 963.672 49.2835 970.188 47.1002C977.422 44.6835 980.938 41.4835 974.788 42.9335C972.022 43.5835 965.455 42.3668 957.288 39.6668C945.622 35.8502 943.272 35.5668 935.838 37.2168C931.255 38.2335 924.688 40.7502 921.272 42.8168L915.055 46.5668L927.122 46.0335Z" fill="#C45C4A"/>
<path d="M988.655 42.9335C982.472 41.4502 985.088 43.8002 992.822 46.6835C997.455 48.4002 1002.12 48.7168 1010.02 47.8002C1015.97 47.1002 1027.04 46.5335 1034.6 46.5168C1042.17 46.5168 1048.35 46.3335 1048.35 46.1169C1048.35 44.9335 1034.34 38.8835 1027.8 37.2335C1020.95 35.5002 1018.67 35.7668 1006.62 39.6502C998.022 42.4335 991.505 43.6168 988.655 42.9335Z" fill="#C45C4A"/>
<path d="M1059.4 37.5168C1056.9 41.1002 1057.47 45.5002 1060.74 47.7168C1065.57 51.0335 1071.69 47.5668 1071.69 41.5002C1071.69 34.0168 1063.69 31.4168 1059.4 37.5168Z" fill="#C45C4A"/>
</svg>
