<svg width="2798" height="79" viewBox="0 0 2798 79" fill="none" xmlns="http://www.w3.org/2000/svg">
<path d="M1358.88 75.9502C1356.61 74.3835 1353.85 71.9502 1352.73 70.5335C1348.25 64.8335 1351.85 48.9167 1358.16 46.4834C1363.5 44.4501 1371.76 45.4667 1374.51 48.5001C1377.73 52.0667 1378.13 58.9168 1375.26 61.7835C1371.36 65.6835 1362.26 63.1168 1362.26 58.1334C1362.26 57.2168 1363.26 57.8334 1364.48 59.5001C1367.88 64.1668 1373.93 61.5334 1373.93 55.4001C1373.93 46.8668 1364.76 44.4501 1358.01 51.2001C1349.43 59.8001 1355.63 73.7835 1368.05 73.7835C1381.58 73.7835 1391.31 56.4501 1384.83 43.9167C1376.76 28.3167 1347.35 29.1501 1342.56 45.1167C1341.48 48.7167 1338.96 53.7334 1336.98 56.2668C1332.76 61.6168 1321.81 67.0335 1315.06 67.0835C1310.98 67.1168 1310.51 66.6335 1311.5 63.3668C1313.78 55.7001 1321.03 45.1334 1326.15 42.0167C1329.05 40.2501 1334.13 38.8001 1337.43 38.7834C1341.43 38.7834 1344.46 37.6001 1346.6 35.2167C1357.5 22.9834 1383.5 25.4334 1392.2 39.5167C1399.06 50.6334 1395.18 67.3502 1383.93 75.0335C1377.16 79.6502 1364.91 80.1002 1358.88 75.9502ZM1415.53 75.3835C1410.55 70.4002 1408.73 64.5335 1410.63 59.5501C1411.98 55.9668 1412.73 55.5834 1415.55 57.0834C1420.21 59.5834 1422.27 64.1501 1422.27 72.0001C1422.27 79.5668 1420.56 80.4168 1415.53 75.3835ZM1439.63 76.4168C1429.41 71.9668 1422.53 57.1168 1430.68 57.1168C1439.07 57.1168 1446.22 63.8668 1449.67 75.0335C1451.05 79.5002 1447.75 79.9502 1439.63 76.4168ZM1452.4 60.9501C1449.28 59.3001 1445.65 56.3167 1444.35 54.3001C1442.12 50.8334 1442.32 50.5667 1448.63 48.6667C1457.32 46.0667 1465.07 47.7334 1472.27 53.7167C1479.3 59.5667 1478.08 61.5002 1466.43 62.9335C1460.13 63.7002 1456.72 63.2168 1452.4 60.9501ZM1415.06 52.0834C1406.98 49.6667 1399.18 42.4834 1397.1 35.5667C1393.61 23.9334 1398.86 10.25 1409.33 3.68335C1422.33 -4.48332 1441.58 4.46671 1441.22 18.5167C1440.98 27.3667 1436.58 33.4501 1429.45 34.7834C1418.21 36.9001 1409.5 24.9834 1417.2 18.0167C1420.03 15.45 1421.32 15.25 1424.77 16.8167C1427.07 17.8667 1428.92 19.6667 1428.9 20.8334C1428.88 22.4667 1428.55 22.4334 1427.47 20.7167C1425.18 17.1001 1418.18 19.0334 1417.55 23.4667C1416.81 28.7167 1420.05 32.1167 1425.8 32.1167C1433.18 32.1167 1437.55 26.6834 1436.93 18.2834C1436.48 12.05 1435.75 10.95 1430.2 8.23334C1424.95 5.66667 1423.01 5.48335 1418.13 7.10002C1407.3 10.6834 1401.66 23.4834 1406.18 34.2834C1409.98 43.3834 1417.57 47.4334 1429.37 46.6834C1440.83 45.9501 1447.32 41.7834 1449.38 33.8501C1450.17 30.8334 1451.95 26.6167 1453.35 24.4834C1457.73 17.7667 1480.6 9.26668 1480.6 14.3334C1480.6 18.7667 1471.78 33.9001 1467.37 37.0501C1464.83 38.8501 1459.45 40.8334 1455.42 41.4501C1451.4 42.0501 1446.58 43.9167 1444.75 45.5834C1437 52.6001 1425.31 55.1667 1415.06 52.0834ZM1328.23 31.2667C1321.18 28.8001 1312.53 21.3 1314.46 19.35C1317.15 16.6667 1335.03 16.75 1340.28 19.45C1347.3 23.0834 1350 28.1167 1346.03 30.1501C1340.16 33.1667 1334.63 33.5167 1328.23 31.2667ZM1353.93 20.8667C1349.98 18.8834 1346.81 15.3667 1344.13 9.96668C1341.96 5.56668 1340.66 1.5 1341.25 0.916672C1343.13 -0.966662 1357.66 6.15 1360.68 10.45C1362.28 12.75 1364.06 16.6834 1364.63 19.2C1365.88 24.7834 1362.75 25.2667 1353.93 20.8667ZM1373.48 20.8667C1369.98 16.9834 1368.31 9.78335 1369.66 4.38335L1370.78 0L1375.55 4.56668C1380.76 9.56668 1382.96 15.6167 1381.38 20.6C1380.13 24.5667 1376.93 24.6834 1373.48 20.8667Z" fill="#C45C4A"/>
<path d="M1766.76 45.9281C1763.1 45.0448 1754.66 44.5781 1748.03 44.8781L1735.96 45.4447L1742.18 41.6947C1745.6 39.6281 1752.16 37.1114 1756.75 36.0947C1764.18 34.4447 1766.53 34.7281 1778.2 38.5447C1785.43 40.9281 1793.25 42.4781 1795.7 42.0281C1799 41.3948 1798.43 42.0114 1793.43 44.4948C1786.28 48.0281 1777.43 48.5114 1766.76 45.9281ZM1813.73 45.5614C1805.98 42.6781 1803.4 40.3281 1809.6 41.8281C1812.46 42.5114 1818.73 41.3947 1826.9 38.7281C1842.33 33.6781 1843.41 33.6447 1854.71 37.8781C1870.91 43.9447 1871.08 45.3781 1855.55 45.3947C1847.96 45.4114 1836.88 45.9781 1830.93 46.6781C1823.03 47.5948 1818.36 47.2781 1813.73 45.5614ZM1879.6 45.8781C1876.08 42.3614 1877.25 36.2948 1881.83 34.2114C1885.46 32.5614 1886.58 32.7947 1889.63 35.8447C1892.68 38.8947 1892.91 40.0114 1891.26 43.6448C1889.18 48.2281 1883.11 49.3948 1879.6 45.8781ZM1932.6 45.9614C1928.46 45.0948 1919.66 44.6281 1913.03 44.9114L1900.96 45.4447L1907.18 41.6947C1910.6 39.6281 1917.16 37.1114 1921.75 36.0947C1929.18 34.4447 1931.53 34.7281 1943.2 38.5447C1951.36 41.2447 1957.93 42.4614 1960.7 41.8114C1966.85 40.3614 1963.33 43.5614 1956.1 45.9781C1949.58 48.1614 1943.2 48.1614 1932.6 45.9614ZM1978.73 45.5614C1971 42.6781 1968.38 40.3281 1974.56 41.8114C1977.41 42.4948 1983.93 41.3114 1992.53 38.5281C2004.58 34.6447 2006.86 34.3781 2013.71 36.1114C2020.25 37.7614 2034.26 43.8114 2034.26 44.9948C2034.26 45.2114 2028.08 45.3947 2020.51 45.3947C2012.95 45.4114 2001.88 45.9781 1995.93 46.6781C1988.03 47.5948 1983.36 47.2781 1978.73 45.5614ZM2046.65 46.5948C2043.38 44.3781 2042.81 39.9781 2045.31 36.3947C2049.6 30.2947 2057.6 32.8947 2057.6 40.3781C2057.6 46.4447 2051.48 49.9114 2046.65 46.5948ZM2095.93 45.9614C2091.8 45.0948 2083.36 44.6448 2077.16 44.9448L2065.88 45.4948L2072.15 41.7114C2075.58 39.6448 2082.16 37.1114 2086.75 36.0947C2094.18 34.4447 2096.53 34.7281 2108.2 38.5447C2116.36 41.2447 2122.93 42.4614 2125.7 41.8114C2131.85 40.3614 2128.33 43.5614 2121.1 45.9781C2114.55 48.1781 2106.56 48.1614 2095.93 45.9614Z" fill="#C45C4A"/>
<path d="M1480.46 43.7114C1474.26 42.2114 1476.85 44.5614 1484.6 47.4447C1489.23 49.1614 1493.9 49.4781 1501.8 48.5614C1507.75 47.8614 1518.83 47.2947 1526.41 47.2781C1541.95 47.2614 1541.78 45.8281 1525.58 39.7614C1514.28 35.5281 1513.2 35.5614 1497.76 40.6114C1489.6 43.2781 1483.33 44.3947 1480.46 43.7114Z" fill="#C45C4A"/>
<path d="M1552.7 36.0947C1548.11 38.1781 1546.95 44.2447 1550.46 47.7614C1553.98 51.2781 1560.05 50.1114 1562.13 45.5281C1563.78 41.8947 1563.55 40.7781 1560.5 37.7281C1557.45 34.6781 1556.33 34.4447 1552.7 36.0947Z" fill="#C45C4A"/>
<path d="M1583.9 46.7947C1590.53 46.5114 1599.33 46.9781 1603.46 47.8447C1614.06 50.0447 1620.45 50.0447 1626.96 47.8614C1634.2 45.4447 1637.71 42.2447 1631.56 43.6947C1628.8 44.3447 1622.23 43.1281 1614.06 40.4281C1602.39 36.6114 1600.05 36.3281 1592.61 37.9781C1588.03 38.9947 1581.46 41.5114 1578.05 43.5781L1571.83 47.3281L1583.9 46.7947Z" fill="#C45C4A"/>
<path d="M1645.43 43.6947C1639.24 42.2114 1641.86 44.5614 1649.6 47.4447C1654.23 49.1614 1658.89 49.4781 1666.79 48.5614C1672.75 47.8614 1683.81 47.2947 1691.38 47.2781C1698.95 47.2781 1705.13 47.0947 1705.13 46.8781C1705.13 45.6947 1691.11 39.6447 1684.58 37.9947C1677.73 36.2614 1675.45 36.5281 1663.39 40.4114C1654.79 43.1947 1648.28 44.3781 1645.43 43.6947Z" fill="#C45C4A"/>
<path d="M1716.18 38.2781C1713.68 41.8614 1714.25 46.2614 1717.51 48.4781C1722.35 51.7947 1728.46 48.3281 1728.46 42.2614C1728.46 34.7781 1720.46 32.1781 1716.18 38.2781Z" fill="#C45C4A"/>
<path d="M2431.76 44.9281C2428.1 44.0448 2419.66 43.5781 2413.03 43.8781L2400.96 44.4447L2407.18 40.6947C2410.6 38.6281 2417.16 36.1114 2421.75 35.0947C2429.18 33.4447 2431.53 33.7281 2443.2 37.5447C2450.43 39.9281 2458.25 41.4781 2460.7 41.0281C2464 40.3948 2463.43 41.0114 2458.43 43.4948C2451.28 47.0281 2442.43 47.5114 2431.76 44.9281ZM2478.73 44.5614C2470.98 41.6781 2468.4 39.3281 2474.6 40.8281C2477.46 41.5114 2483.73 40.3947 2491.9 37.7281C2507.33 32.6781 2508.41 32.6447 2519.71 36.8781C2535.91 42.9447 2536.08 44.3781 2520.55 44.3947C2512.96 44.4114 2501.88 44.9781 2495.93 45.6781C2488.03 46.5948 2483.36 46.2781 2478.73 44.5614ZM2544.6 44.8781C2541.08 41.3614 2542.25 35.2948 2546.83 33.2114C2550.46 31.5614 2551.58 31.7947 2554.63 34.8447C2557.68 37.8947 2557.91 39.0114 2556.26 42.6448C2554.18 47.2281 2548.11 48.3948 2544.6 44.8781ZM2597.6 44.9614C2593.46 44.0948 2584.66 43.6281 2578.03 43.9114L2565.96 44.4447L2572.18 40.6947C2575.6 38.6281 2582.16 36.1114 2586.75 35.0947C2594.18 33.4447 2596.53 33.7281 2608.2 37.5447C2616.36 40.2447 2622.93 41.4614 2625.7 40.8114C2631.85 39.3614 2628.33 42.5614 2621.1 44.9781C2614.58 47.1614 2608.2 47.1614 2597.6 44.9614ZM2643.73 44.5614C2636 41.6781 2633.38 39.3281 2639.56 40.8114C2642.41 41.4947 2648.93 40.3114 2657.53 37.5281C2669.58 33.6447 2671.86 33.3781 2678.71 35.1114C2685.25 36.7614 2699.26 42.8114 2699.26 43.9948C2699.26 44.2114 2693.08 44.3947 2685.51 44.3947C2677.95 44.4114 2666.88 44.9781 2660.93 45.6781C2653.03 46.5948 2648.36 46.2781 2643.73 44.5614ZM2711.65 45.5948C2708.38 43.3781 2707.81 38.9781 2710.31 35.3947C2714.6 29.2947 2722.6 31.8947 2722.6 39.3781C2722.6 45.4447 2716.48 48.9114 2711.65 45.5948ZM2760.93 44.9614C2756.8 44.0948 2748.36 43.6448 2742.16 43.9448L2730.88 44.4948L2737.15 40.7114C2740.58 38.6448 2747.16 36.1114 2751.75 35.0947C2759.18 33.4447 2761.53 33.7281 2773.2 37.5447C2781.36 40.2447 2787.93 41.4614 2790.7 40.8114C2796.85 39.3614 2793.33 42.5614 2786.1 44.9781C2779.55 47.1781 2771.56 47.1614 2760.93 44.9614Z" fill="#C45C4A"/>
<path d="M2145.46 42.7114C2139.26 41.2114 2141.85 43.5614 2149.6 46.4447C2154.23 48.1614 2158.9 48.4781 2166.8 47.5614C2172.75 46.8614 2183.83 46.2947 2191.41 46.2781C2206.95 46.2614 2206.78 44.8281 2190.58 38.7614C2179.28 34.5281 2178.2 34.5614 2162.76 39.6114C2154.6 42.2781 2148.33 43.3947 2145.46 42.7114Z" fill="#C45C4A"/>
<path d="M2217.7 35.0947C2213.11 37.1781 2211.95 43.2447 2215.46 46.7614C2218.98 50.2781 2225.05 49.1114 2227.13 44.5281C2228.78 40.8947 2228.55 39.7781 2225.5 36.7281C2222.45 33.6781 2221.33 33.4447 2217.7 35.0947Z" fill="#C45C4A"/>
<path d="M2248.9 45.7947C2255.53 45.5114 2264.33 45.9781 2268.46 46.8447C2279.06 49.0447 2285.45 49.0447 2291.96 46.8614C2299.2 44.4447 2302.71 41.2447 2296.56 42.6947C2293.8 43.3447 2287.23 42.1281 2279.06 39.4281C2267.39 35.6114 2265.05 35.3281 2257.61 36.9781C2253.03 37.9947 2246.46 40.5114 2243.05 42.5781L2236.83 46.3281L2248.9 45.7947Z" fill="#C45C4A"/>
<path d="M2310.43 42.6947C2304.24 41.2114 2306.86 43.5614 2314.6 46.4447C2319.23 48.1614 2323.89 48.4781 2331.79 47.5614C2337.75 46.8614 2348.81 46.2947 2356.38 46.2781C2363.95 46.2781 2370.13 46.0947 2370.13 45.8781C2370.13 44.6947 2356.11 38.6447 2349.58 36.9947C2342.73 35.2614 2340.45 35.5281 2328.39 39.4114C2319.79 42.1947 2313.28 43.3781 2310.43 42.6947Z" fill="#C45C4A"/>
<path d="M2381.18 37.2781C2378.68 40.8614 2379.25 45.2614 2382.51 47.4781C2387.35 50.7947 2393.46 47.3281 2393.46 41.2614C2393.46 33.7781 2385.46 31.1781 2381.18 37.2781Z" fill="#C45C4A"/>
<path d="M289.763 46.9281C286.096 46.0448 277.663 45.5781 271.029 45.8781L258.963 46.4447L265.179 42.6947C268.596 40.6281 275.163 38.1114 279.746 37.0947C287.179 35.4447 289.529 35.7281 301.196 39.5447C308.429 41.9281 316.246 43.4781 318.696 43.0281C321.996 42.3948 321.429 43.0114 316.429 45.4948C309.279 49.0281 300.429 49.5114 289.763 46.9281ZM336.729 46.5614C328.979 43.6781 326.396 41.3281 332.596 42.8281C335.463 43.5114 341.729 42.3947 349.896 39.7281C365.329 34.6781 366.413 34.6447 377.713 38.8781C393.913 44.9447 394.08 46.3781 378.546 46.3947C370.963 46.4114 359.879 46.9781 353.929 47.6781C346.029 48.5948 341.363 48.2781 336.729 46.5614ZM402.596 46.8781C399.079 43.3614 400.246 37.2948 404.829 35.2114C408.463 33.5614 409.579 33.7947 412.629 36.8447C415.679 39.8947 415.912 41.0114 414.262 44.6448C412.179 49.2281 406.113 50.3948 402.596 46.8781ZM455.596 46.9614C451.462 46.0948 442.662 45.6281 436.029 45.9114L423.962 46.4447L430.179 42.6947C433.596 40.6281 440.162 38.1114 444.746 37.0947C452.179 35.4447 454.529 35.7281 466.196 39.5447C474.362 42.2447 480.929 43.4614 483.696 42.8114C489.846 41.3614 486.329 44.5614 479.096 46.9781C472.579 49.1614 466.196 49.1614 455.596 46.9614ZM501.729 46.5614C493.996 43.6781 491.379 41.3281 497.562 42.8114C500.412 43.4947 506.929 42.3114 515.529 39.5281C527.579 35.6447 529.863 35.3781 536.713 37.1114C543.246 38.7614 557.263 44.8114 557.263 45.9948C557.263 46.2114 551.079 46.3947 543.513 46.3947C535.946 46.4114 524.879 46.9781 518.929 47.6781C511.029 48.5948 506.362 48.2781 501.729 46.5614ZM569.646 47.5948C566.379 45.3781 565.813 40.9781 568.313 37.3947C572.596 31.2947 580.596 33.8947 580.596 41.3781C580.596 47.4447 574.479 50.9114 569.646 47.5948ZM618.929 46.9614C614.796 46.0948 606.363 45.6448 600.163 45.9448L588.879 46.4948L595.146 42.7114C598.579 40.6448 605.163 38.1114 609.746 37.0947C617.179 35.4447 619.529 35.7281 631.196 39.5447C639.363 42.2447 645.929 43.4614 648.696 42.8114C654.846 41.3614 651.329 44.5614 644.096 46.9781C637.546 49.1781 629.563 49.1614 618.929 46.9614Z" fill="#C45C4A"/>
<path d="M3.46175 44.7114C-2.73826 43.2114 -0.15495 45.5614 7.59507 48.4447C12.2284 50.1614 16.895 50.4781 24.795 49.5614C30.7451 48.8614 41.8284 48.2947 49.4117 48.2781C64.9451 48.2614 64.7785 46.8281 48.5784 40.7614C37.2784 36.5281 36.1951 36.5614 20.7617 41.6114C12.595 44.2781 6.32843 45.3947 3.46175 44.7114Z" fill="#C45C4A"/>
<path d="M75.6951 37.0947C71.1117 39.1781 69.9451 45.2447 73.4617 48.7614C76.9784 52.2781 83.045 51.1114 85.1284 46.5281C86.7784 42.8947 86.545 41.7781 83.495 38.7281C80.445 35.6781 79.3284 35.4447 75.6951 37.0947Z" fill="#C45C4A"/>
<path d="M106.895 47.7947C113.528 47.5114 122.328 47.9781 126.462 48.8447C137.062 51.0447 143.445 51.0447 149.962 48.8614C157.195 46.4447 160.712 43.2447 154.562 44.6947C151.795 45.3447 145.228 44.1281 137.062 41.4281C125.395 37.6114 123.045 37.3281 115.612 38.9781C111.028 39.9947 104.462 42.5114 101.045 44.5781L94.8284 48.3281L106.895 47.7947Z" fill="#C45C4A"/>
<path d="M168.428 44.6947C162.245 43.2114 164.862 45.5614 172.595 48.4447C177.228 50.1614 181.895 50.4781 189.795 49.5614C195.745 48.8614 206.812 48.2947 214.378 48.2781C221.945 48.2781 228.128 48.0947 228.128 47.8781C228.128 46.6947 214.112 40.6447 207.578 38.9947C200.728 37.2614 198.445 37.5281 186.395 41.4114C177.795 44.1947 171.278 45.3781 168.428 44.6947Z" fill="#C45C4A"/>
<path d="M239.178 39.2781C236.678 42.8614 237.245 47.2614 240.512 49.4781C245.345 52.7947 251.462 49.3281 251.462 43.2614C251.462 35.7781 243.462 33.1781 239.178 39.2781Z" fill="#C45C4A"/>
<path d="M954.763 45.9281C951.096 45.0448 942.663 44.5781 936.029 44.8781L923.963 45.4447L930.179 41.6947C933.596 39.6281 940.163 37.1114 944.746 36.0947C952.179 34.4447 954.529 34.7281 966.196 38.5447C973.429 40.9281 981.246 42.4781 983.696 42.0281C986.996 41.3948 986.429 42.0114 981.429 44.4948C974.279 48.0281 965.429 48.5114 954.763 45.9281ZM1001.73 45.5614C993.979 42.6781 991.396 40.3281 997.596 41.8281C1000.46 42.5114 1006.73 41.3947 1014.9 38.7281C1030.33 33.6781 1031.41 33.6447 1042.71 37.8781C1058.91 43.9447 1059.08 45.3781 1043.55 45.3947C1035.96 45.4114 1024.88 45.9781 1018.93 46.6781C1011.03 47.5948 1006.36 47.2781 1001.73 45.5614ZM1067.6 45.8781C1064.08 42.3614 1065.25 36.2948 1069.83 34.2114C1073.46 32.5614 1074.58 32.7947 1077.63 35.8447C1080.68 38.8947 1080.91 40.0114 1079.26 43.6448C1077.18 48.2281 1071.11 49.3948 1067.6 45.8781ZM1120.6 45.9614C1116.46 45.0948 1107.66 44.6281 1101.03 44.9114L1088.96 45.4447L1095.18 41.6947C1098.6 39.6281 1105.16 37.1114 1109.75 36.0947C1117.18 34.4447 1119.53 34.7281 1131.2 38.5447C1139.36 41.2447 1145.93 42.4614 1148.7 41.8114C1154.85 40.3614 1151.33 43.5614 1144.1 45.9781C1137.58 48.1614 1131.2 48.1614 1120.6 45.9614ZM1166.73 45.5614C1159 42.6781 1156.38 40.3281 1162.56 41.8114C1165.41 42.4947 1171.93 41.3114 1180.53 38.5281C1192.58 34.6447 1194.86 34.3781 1201.71 36.1114C1208.25 37.7614 1222.26 43.8114 1222.26 44.9948C1222.26 45.2114 1216.08 45.3947 1208.51 45.3947C1200.95 45.4114 1189.88 45.9781 1183.93 46.6781C1176.03 47.5948 1171.36 47.2781 1166.73 45.5614ZM1234.65 46.5948C1231.38 44.3781 1230.81 39.9781 1233.31 36.3947C1237.6 30.2947 1245.6 32.8947 1245.6 40.3781C1245.6 46.4447 1239.48 49.9114 1234.65 46.5948ZM1283.93 45.9614C1279.8 45.0948 1271.36 44.6448 1265.16 44.9448L1253.88 45.4948L1260.15 41.7114C1263.58 39.6448 1270.16 37.1114 1274.75 36.0947C1282.18 34.4447 1284.53 34.7281 1296.2 38.5447C1304.36 41.2447 1310.93 42.4614 1313.7 41.8114C1319.85 40.3614 1316.33 43.5614 1309.1 45.9781C1302.55 48.1781 1294.56 48.1614 1283.93 45.9614Z" fill="#C45C4A"/>
<path d="M668.462 43.7114C662.262 42.2114 664.845 44.5614 672.595 47.4447C677.228 49.1614 681.895 49.4781 689.795 48.5614C695.745 47.8614 706.828 47.2947 714.412 47.2781C729.945 47.2614 729.778 45.8281 713.578 39.7614C702.278 35.5281 701.195 35.5614 685.762 40.6114C677.595 43.2781 671.328 44.3947 668.462 43.7114Z" fill="#C45C4A"/>
<path d="M740.695 36.0947C736.112 38.1781 734.945 44.2447 738.462 47.7614C741.978 51.2781 748.045 50.1114 750.128 45.5281C751.778 41.8947 751.545 40.7781 748.495 37.7281C745.445 34.6781 744.328 34.4447 740.695 36.0947Z" fill="#C45C4A"/>
<path d="M771.895 46.7947C778.528 46.5114 787.328 46.9781 791.462 47.8447C802.062 50.0447 808.445 50.0447 814.962 47.8614C822.195 45.4447 825.712 42.2447 819.562 43.6947C816.795 44.3447 810.228 43.1281 802.062 40.4281C790.395 36.6114 788.045 36.3281 780.612 37.9781C776.028 38.9947 769.462 41.5114 766.045 43.5781L759.828 47.3281L771.895 46.7947Z" fill="#C45C4A"/>
<path d="M833.428 43.6947C827.245 42.2114 829.862 44.5614 837.595 47.4447C842.228 49.1614 846.895 49.4781 854.795 48.5614C860.745 47.8614 871.812 47.2947 879.378 47.2781C886.945 47.2781 893.128 47.0947 893.128 46.8781C893.128 45.6947 879.112 39.6447 872.578 37.9947C865.728 36.2614 863.445 36.5281 851.395 40.4114C842.795 43.1947 836.278 44.3781 833.428 43.6947Z" fill="#C45C4A"/>
<path d="M904.178 38.2781C901.678 41.8614 902.245 46.2614 905.512 48.4781C910.345 51.7947 916.462 48.3281 916.462 42.2614C916.462 34.7781 908.462 32.1781 904.178 38.2781Z" fill="#C45C4A"/>
</svg>
