<svg width="110" height="92" viewBox="0 0 110 92" fill="none" xmlns="http://www.w3.org/2000/svg">
    <path d="M11.5622 47.9437L15.1584 46.428C17.0387 45.6355 19.2119 46.0651 20.6492 47.5133L30.1959 57.1324L40.3124 66.0865C41.0078 66.702 41.5181 67.499 41.786 68.3882L42.6543 71.2703C42.7953 71.7381 42.8669 72.2241 42.8669 72.7127V84.9999C42.8669 87.7613 40.6283 89.9999 37.8669 89.9999H25.8791C23.1177 89.9999 20.8791 87.7613 20.8791 84.9999V80.2122C20.8791 79.0033 20.4411 77.8354 19.6463 76.9246L3.73174 58.6884C3.24383 58.1293 2.88648 57.4687 2.68561 56.7543L1.68668 53.202C1.56281 52.7615 1.5 52.306 1.5 51.8484V27.4508C1.5 26.3263 1.9926 25.2582 2.84793 24.5282C4.23334 23.3458 6.2586 23.2985 7.69765 24.4151L8.29451 24.8782C8.96986 25.4022 9.49201 26.098 9.80634 26.8929L11.2119 30.4473C11.4434 31.0327 11.5622 31.6565 11.5622 32.286V47.9437ZM11.5622 47.9437L12.6799 51.9185C12.924 52.7866 13.3984 53.5725 14.0527 54.193L24.9785 64.5541"
          stroke="#C45C4A" stroke-width="3.5"/>
    <path d="M98.0227 47.5904L94.4265 46.0747C92.5463 45.2822 90.3731 45.7118 88.9357 47.16L79.389 56.7792L69.2725 65.7332C68.5771 66.3487 68.0669 67.1457 67.799 68.0349L66.9306 70.917C66.7897 71.3848 66.7181 71.8708 66.7181 72.3594V84.6466C66.7181 87.4081 68.9567 89.6466 71.7181 89.6466H83.7059C86.4673 89.6466 88.7059 87.4081 88.7059 84.6466V79.8589C88.7059 78.6501 89.1438 77.4821 89.9387 76.5713L105.853 58.3351C106.341 57.7761 106.698 57.1154 106.899 56.4011L107.898 52.8487C108.022 52.4082 108.085 51.9528 108.085 51.4952V27.0975C108.085 25.973 107.592 24.9049 106.737 24.1749C105.352 22.9925 103.326 22.9453 101.887 24.0618L101.29 24.5249C100.615 25.0489 100.093 25.7448 99.7786 26.5397L98.3731 30.094C98.1416 30.6794 98.0227 31.3032 98.0227 31.9327V47.5904ZM98.0227 47.5904L96.905 51.5652C96.6609 52.4333 96.1866 53.2192 95.5323 53.8397L84.6065 64.2009"
          stroke="#C45C4A" stroke-width="3.5"/>
    <path d="M55.5449 13V35.9719" stroke="#C45C4A" stroke-width="4" stroke-linecap="round"/>
    <path d="M52.0576 28.2307L58.1594 31.6153" stroke="#C45C4A" stroke-width="4" stroke-linecap="round"/>
    <path d="M47.6992 18.9231H63.7242" stroke="#C45C4A" stroke-width="4" stroke-linecap="round"/>
    <path d="M55.4169 7.68202L54.3734 6.76314C47.2926 0.331017 35.8142 0.401699 28.957 7.04587C22.0998 13.69 22.1743 24.4338 29.1061 30.9366L55.4169 55.7463L81.7278 30.9366C88.6595 24.4338 88.734 13.69 81.8768 7.04587C75.0196 0.401699 63.5412 0.331017 56.4604 6.76314L55.4169 7.68202Z"
          stroke="#C45C4A" stroke-width="4" stroke-linecap="round" stroke-linejoin="round"/>
</svg>
