<?xml version="1.0" encoding="UTF-8"?>
<svg version="1.1" xmlns="http://www.w3.org/2000/svg" width="512" height="256">
    <path d="M0 0 C2.08212438 -0.00438701 4.16214118 -0.04094552 6.24389648 -0.07861328 C17.38036071 -0.17180271 30.29326014 0.72229317 39.64819336 7.37060547 C41.57850722 10.89372433 41.98600103 14.21027831 42.27319336 18.18310547 C42.3853418 19.64683594 42.3853418 19.64683594 42.49975586 21.14013672 C42.54874023 21.87619141 42.59772461 22.61224609 42.64819336 23.37060547 C44.23046301 23.56687938 45.81408607 23.75226085 47.39819336 23.93310547 C48.27991211 24.03751953 49.16163086 24.14193359 50.07006836 24.24951172 C52.53251787 24.36517223 54.313574 24.10699242 56.64819336 23.37060547 C56.68557617 22.63455078 56.72295898 21.89849609 56.76147461 21.14013672 C57.22591192 14.24643004 57.71964925 10.06170005 62.96069336 5.24560547 C72.44444731 -0.51797788 85.65341339 -0.16470666 96.33569336 -0.06689453 C97.0475177 -0.06385315 97.75934204 -0.06081177 98.49273682 -0.05767822 C112.78684821 0.03167238 126.61231037 1.62363641 140.64819336 4.37060547 C141.75324219 4.58491211 142.85829102 4.79921875 143.99682617 5.02001953 C174.38505762 11.05549655 203.46496781 20.53611886 231.64819336 33.37060547 C232.13030273 32.66033203 232.61241211 31.95005859 233.10913086 31.21826172 C233.74077148 30.29916016 234.37241211 29.38005859 235.02319336 28.43310547 C235.64967773 27.51658203 236.27616211 26.60005859 236.92163086 25.65576172 C238.64819336 23.37060547 238.64819336 23.37060547 240.64819336 22.37060547 C248.48147267 21.34887338 256.09082529 24.79827619 262.37084961 29.33935547 C266.5829384 33.09627858 268.34096545 36.69481687 269.33569336 42.12060547 C269.14641311 47.2212102 265.93520363 50.89760319 262.98413086 54.85498047 C261.39747547 57.21613162 261.39747547 57.21613162 262.02709961 59.46044922 C264.3338862 62.17856643 267.06546794 63.62925156 270.21069336 65.18310547 C270.88874023 65.52277344 271.56678711 65.86244141 272.26538086 66.21240234 C282.52082848 71.0527581 293.69418916 73.60327809 304.64819336 76.37060547 C304.97819336 77.69060547 305.30819336 79.01060547 305.64819336 80.37060547 C299.5971953 84.959279 293.30768715 88.0078406 286.23413086 90.65795898 C281.40996984 92.59172159 279.03586047 94.54114277 276.64819336 99.37060547 C275.25628529 106.77023442 276.92289109 113.36206879 279.77319336 120.19091797 C280.64819336 122.37060547 280.64819336 122.37060547 280.64819336 124.37060547 C274.93723228 123.8363953 270.09942973 122.71660231 264.77319336 120.62060547 C264.07774414 120.35183594 263.38229492 120.08306641 262.66577148 119.80615234 C239.89409078 110.86240031 239.89409078 110.86240031 234.64819336 100.37060547 C233.13101265 95.61082286 233.35890083 92.35588865 235.58569336 87.87060547 C236.25388598 86.69277442 236.9348946 85.52167986 237.64819336 84.37060547 C234.29690464 81.40232118 232.04523757 80.07265454 227.64819336 79.37060547 C227.41745117 80.12986328 227.18670898 80.88912109 226.94897461 81.67138672 C226.6228418 82.66525391 226.29670898 83.65912109 225.96069336 84.68310547 C225.49083008 86.16230469 225.49083008 86.16230469 225.01147461 87.67138672 C223.35289639 90.95527654 221.97872361 91.88597089 218.64819336 93.37060547 C206.093487 95.90437348 190.81925824 88.470778 179.33569336 84.18310547 C149.01773423 73.09924687 117.84928502 65.87293979 85.64819336 63.37060547 C85.82737305 64.46759766 86.00655273 65.56458984 86.19116211 66.69482422 C86.40695937 68.14911013 86.62175027 69.60354563 86.83569336 71.05810547 C86.9562207 71.77933594 87.07674805 72.50056641 87.20092773 73.24365234 C87.69917267 76.76351173 87.82197113 78.98839781 86.33569336 82.25732422 C80.93833123 89.01652077 73.92880866 91.18487067 65.64819336 92.37060547 C61.16084805 92.58151901 56.67443712 92.59859287 52.18286133 92.61083984 C50.04980552 92.62048513 47.91774004 92.65152995 45.78491211 92.68310547 C35.16865252 92.76527095 24.18279498 92.37335551 15.64819336 85.37060547 C15.05006836 84.93748047 14.45194336 84.50435547 13.83569336 84.05810547 C11.2554928 80.39150467 11.47707461 76.60411554 12.06738281 72.34887695 C12.25518311 71.2822583 12.4429834 70.21563965 12.63647461 69.11669922 C12.8237915 68.03960693 13.0111084 66.96251465 13.20410156 65.8527832 C13.35065186 65.03366455 13.49720215 64.2145459 13.64819336 63.37060547 C-22.17845602 66.54392127 -56.27792965 75.26257594 -89.96240234 87.68969727 C-106.20706379 93.64140973 -106.20706379 93.64140973 -114.60180664 93.68310547 C-115.39071289 93.69986328 -116.17961914 93.71662109 -116.99243164 93.73388672 C-120.11010972 93.25384688 -121.86564212 92.31486059 -124.35180664 90.37060547 C-125.71508789 87.67138672 -125.71508789 87.67138672 -126.66430664 84.68310547 C-126.99043945 83.68923828 -127.31657227 82.69537109 -127.65258789 81.67138672 C-127.88333008 80.91212891 -128.11407227 80.15287109 -128.35180664 79.37060547 C-132.78271135 80.57903403 -135.3329342 81.88729112 -138.35180664 85.37060547 C-137.67118164 86.36060547 -136.99055664 87.35060547 -136.28930664 88.37060547 C-134.27852498 91.93256155 -133.89050884 94.39940489 -134.69946289 98.39794922 C-137.40224239 106.57102496 -144.06200226 110.47120715 -151.35180664 114.37060547 C-172.37504725 124.63417181 -172.37504725 124.63417181 -181.35180664 124.37060547 C-180.87321423 122.76626738 -180.39391106 121.16214131 -179.91430664 119.55810547 C-179.6474707 118.66478516 -179.38063477 117.77146484 -179.10571289 116.85107422 C-178.54792791 115.01587492 -177.95836089 113.19026821 -177.35180664 111.37060547 C-177.18167343 109.43778069 -177.08566531 107.49784973 -177.03930664 105.55810547 C-177.00192383 104.54103516 -176.96454102 103.52396484 -176.92602539 102.47607422 C-177.48953325 98.36608573 -178.60003614 96.48758008 -181.35180664 93.37060547 C-184.16532101 91.68509494 -187.11259771 90.49556979 -190.16430664 89.30810547 C-196.18727642 86.89991063 -201.19630793 84.34219793 -206.35180664 80.37060547 C-206.02180664 79.05060547 -205.69180664 77.73060547 -205.35180664 76.37060547 C-204.67827148 76.20044922 -204.00473633 76.03029297 -203.31079102 75.85498047 C-186.70832204 71.66984323 -186.70832204 71.66984323 -170.91430664 65.18310547 C-170.2659082 64.86277344 -169.61750977 64.54244141 -168.94946289 64.21240234 C-166.47616368 62.89710616 -164.54911898 61.60310121 -162.73071289 59.46044922 C-162.10108875 57.21613162 -162.10108875 57.21613162 -163.68774414 54.85498047 C-164.36063477 53.95263672 -165.03352539 53.05029297 -165.72680664 52.12060547 C-169.91073388 45.8943264 -169.91073388 45.8943264 -170.10180664 42.18310547 C-168.93356204 36.24452875 -166.89945578 32.28664109 -162.00415039 28.60498047 C-155.45533003 24.53542694 -149.24458993 21.36606941 -141.35180664 22.37060547 C-137.44576779 25.4591013 -135.06738857 29.24292094 -132.35180664 33.37060547 C-131.7055835 33.08451416 -131.05936035 32.79842285 -130.39355469 32.50366211 C-97.92052258 18.21917824 -64.48216036 7.74163526 -29.35180664 2.37060547 C-27.67260132 2.10570313 -27.67260132 2.10570313 -25.95947266 1.83544922 C-17.26584041 0.55638608 -8.77777144 -0.00205641 0 0 Z "
          fill="#c9a96e" transform="translate(206.351806640625,65.62939453125)"/>
</svg>
