<?xml version="1.0" encoding="UTF-8"?>
<svg version="1.1" xmlns="http://www.w3.org/2000/svg" width="1774" height="887">
<path d="M0 0 C585.42 0 1170.84 0 1774 0 C1774 292.71 1774 585.42 1774 887 C1188.58 887 603.16 887 0 887 C0 594.29 0 301.58 0 0 Z " fill="#FDFDFD" transform="translate(0,0)"/>
<path d="M0 0 C2.88280222 -0.00217698 5.76521479 -0.02036394 8.64794922 -0.03930664 C20.33763935 -0.07539657 31.7070505 0.58598953 43.28466797 2.18530273 C44.47060547 2.34200439 45.65654297 2.49870605 46.87841797 2.66015625 C59.54959502 4.39388149 72.07885855 6.27944372 84.28466797 10.18530273 C84.97882812 10.40444336 85.67298828 10.62358398 86.38818359 10.84936523 C95.27650842 13.68988344 103.63761035 16.69437038 111.28466797 22.18530273 C112.28240234 22.89299805 112.28240234 22.89299805 113.30029297 23.61499023 C117.73458286 27.06181221 120.36704076 30.89693951 122.28466797 36.18530273 C122.28466797 36.84530273 122.28466797 37.50530273 122.28466797 38.18530273 C124.14369751 38.20717651 124.14369751 38.20717651 126.0402832 38.22949219 C169.5970252 38.77968651 212.10172598 41.95726848 255.30419922 47.56420898 C256.33696487 47.69750107 257.36973053 47.83079315 258.43379211 47.96812439 C267.83256633 49.20670697 277.16836682 50.74022656 286.47216797 52.56030273 C291.40288604 53.51254766 296.34059999 54.36277943 301.30419922 55.12670898 C302.37323486 55.29187012 303.44227051 55.45703125 304.54370117 55.62719727 C306.62847332 55.94599858 308.71419585 56.25867706 310.80102539 56.5637207 C317.23038052 57.54772598 323.48212462 58.91203453 329.78129578 60.53189087 C335.27098332 61.94315403 340.77957947 63.24999151 346.30419922 64.51733398 C347.17276047 64.71698761 348.04132172 64.91664124 348.936203 65.12234497 C350.73294612 65.53524205 352.52973538 65.94793835 354.3265686 66.36044312 C398.9175833 76.61833623 398.9175833 76.61833623 420.47387695 83.69287109 C427.23507607 85.90185152 434.04182043 87.79464313 440.94677734 89.50024414 C441.66414063 89.67990723 442.38150391 89.85957031 443.12060547 90.04467773 C444.04172119 90.26849121 444.04172119 90.26849121 444.98144531 90.49682617 C447.75017485 91.3244515 450.42681254 92.3609411 453.1267395 93.38757324 C456.62741807 94.68168219 460.18039182 95.80086051 463.73779297 96.92749023 C465.34332213 97.44162454 466.94878892 97.95595366 468.55419922 98.47045898 C471.03901252 99.2645242 473.52429522 100.05701152 476.01074219 100.84594727 C484.71360858 103.61087541 493.28055435 106.43155066 501.66943359 110.06420898 C505.69072927 111.78805045 509.79505624 113.26424148 513.90966797 114.74780273 C521.46844384 117.5049428 528.96839214 120.34405596 536.37060547 123.50170898 C537.43537109 123.95416992 538.50013672 124.40663086 539.59716797 124.87280273 C540.56267578 125.28916992 541.52818359 125.70553711 542.52294922 126.13452148 C545.11803241 127.12190109 547.55118162 127.73221119 550.28466797 128.18530273 C550.51154297 127.40026367 550.73841797 126.61522461 550.97216797 125.80639648 C552.69041777 121.06586801 554.9417153 116.70662003 557.28466797 112.24780273 C557.77088623 111.32209473 558.25710449 110.39638672 558.75805664 109.44262695 C564.32654281 99.00927022 570.57412514 87.3572905 579.28466797 79.18530273 C579.80544922 78.68385742 580.32623047 78.18241211 580.86279297 77.66577148 C587.30367454 72.58307581 595.54151771 73.29902765 603.28466797 74.18530273 C625.95987943 78.0672624 650.67235037 93.19863637 664.29638672 111.95483398 C666.05674422 114.65257263 667.69466385 117.38448247 669.28466797 120.18530273 C669.92404297 121.25780273 670.56341797 122.33030273 671.22216797 123.43530273 C674.59249226 135.33056495 672.16755141 144.76358448 666.39355469 155.21459961 C666.02762207 155.86493164 665.66168945 156.51526367 665.28466797 157.18530273 C664.88908691 157.89493164 664.49350586 158.60456055 664.0859375 159.33569336 C662.48230683 162.20434704 660.87879245 165.07137774 659.21850586 167.90771484 C657.42731596 170.98702202 656.03528528 173.7069364 655.28466797 177.18530273 C669.67747456 191.80002485 689.27065538 202.7611702 708.65966797 209.29858398 C713.58927291 210.9637928 718.43682921 212.84561532 723.27294922 214.76342773 C745.19603249 223.32836906 768.1675344 228.10411645 791.28466797 232.18530273 C792.29094238 232.36689941 793.2972168 232.54849609 794.33398438 232.7355957 C807.23572158 235.05484405 820.13479182 236.86767459 833.17333984 238.23461914 C834.21941406 238.34596191 835.26548828 238.45730469 836.34326172 238.57202148 C837.27452881 238.66700928 838.2057959 238.76199707 839.1652832 238.85986328 C841.28466797 239.18530273 841.28466797 239.18530273 842.28466797 240.18530273 C842.32530629 241.85147389 842.32738897 243.51918368 842.28466797 245.18530273 C828.66630811 253.1377888 814.5999531 260.12774531 800.47216797 267.12280273 C781.57079141 276.49582152 762.7513958 285.9767296 744.28466797 296.18530273 C745.09435781 326.26528016 756.39213492 351.0885288 775.63232422 373.97827148 C777.59273945 376.59679301 777.65005234 377.98818949 777.28466797 381.18530273 C773.76388491 382.94569426 769.72436084 382.32697883 765.84716797 382.31030273 C764.59709961 382.31610352 764.59709961 382.31610352 763.32177734 382.32202148 C747.24163277 382.29839159 731.47795996 380.95958661 715.59716797 378.49780273 C714.72526825 378.36425385 713.85336853 378.23070496 712.95504761 378.09310913 C698.82959006 375.91380436 684.97704795 373.35484239 671.28466797 369.18530273 C670.02638184 368.80245117 668.7680957 368.41959961 667.47167969 368.02514648 C649.13142529 362.3805541 631.42515248 355.89927708 614.28466797 347.18530273 C613.58905762 346.8340332 612.89344727 346.48276367 612.17675781 346.12084961 C594.40499435 336.98757041 572.91662975 322.44289906 566.11279297 302.80249023 C562.22044494 285.80100781 567.97483438 269.14819869 573.28466797 253.18530273 C570.72315113 252.36959056 568.16054169 251.55764143 565.59716797 250.74780273 C564.8759375 250.51770508 564.15470703 250.28760742 563.41162109 250.05053711 C559.72286422 248.88832604 556.1050719 247.84087501 552.28466797 247.18530273 C552.12611328 247.86592773 551.96755859 248.54655273 551.80419922 249.24780273 C543.92814189 281.97042765 543.92814189 281.97042765 534.28466797 291.18530273 C525.16591614 296.57166015 516.81055278 298.91384573 506.25097656 296.48852539 C498.26037249 294.00982297 490.81792204 290.871538 483.28466797 287.24780273 C481.44045684 286.37581177 479.5944189 285.5077693 477.74827576 284.63987732 C476.48041535 284.04372239 475.21297085 283.44668214 473.94593811 282.84877014 C456.51863947 274.62637408 438.92062258 266.91031532 421.03466797 259.74780273 C420.31898651 259.46043243 419.60330505 259.17306213 418.86593628 258.87698364 C409.71721292 255.21308871 400.50676548 251.78933671 391.19580078 248.56005859 C388.54110956 247.63700888 385.90646679 246.67321608 383.27856445 245.67651367 C379.36079167 244.19746762 375.40809201 242.85302822 371.42919922 241.54858398 C370.69769653 241.30803284 369.96619385 241.06748169 369.21252441 240.81964111 C366.84180655 240.04238013 364.4697615 239.26931845 362.09716797 238.49780273 C361.28186615 238.23240692 360.46656433 237.96701111 359.6265564 237.693573 C345.29635855 233.04223843 330.89307027 228.86701352 316.33007812 225.00073242 C312.72688369 224.03595213 309.13700231 223.02822456 305.54785156 222.01269531 C297.84228421 219.83402303 290.104528 217.91099694 282.28466797 216.18530273 C279.9923132 215.66750637 277.70064135 215.14667719 275.40966797 214.62280273 C274.40162109 214.39463867 273.39357422 214.16647461 272.35498047 213.93139648 C270.20181328 213.40817138 268.0638415 212.82019575 265.94091797 212.18530273 C261.16588228 210.87931007 256.37224791 210.15931621 251.48388672 209.41772461 C246.98749016 208.70756076 242.58718252 207.80576625 238.15966797 206.74389648 C231.44935647 205.16474107 224.70897852 204.02332981 217.89550781 202.98754883 C215.94492598 202.69066903 213.99563793 202.38532836 212.04638672 202.07983398 C191.70823806 198.91708346 171.3647267 196.61756874 150.84716797 194.99780273 C148.63944399 194.81928102 146.43176142 194.64024658 144.22412109 194.46069336 C138.91142972 194.02968832 133.59827399 193.60487344 128.28466797 193.18530273 C128.43613281 194.05106934 128.58759766 194.91683594 128.74365234 195.80883789 C129.31209576 199.09137999 129.86981874 202.37540402 130.42089844 205.66088867 C130.65928855 207.06947025 130.90165868 208.47738534 131.1484375 209.88452148 C133.58529188 223.80940368 135.79419742 237.39623101 128.28466797 250.18530273 C116.64690013 265.98785551 93.3415069 270.46224316 75.28466797 274.18530273 C74.5334668 274.3412793 73.78226563 274.49725586 73.00830078 274.65795898 C50.97703556 279.09418654 28.67126591 279.36716269 6.28466797 279.37280273 C5.23399139 279.37379974 4.18331482 279.37479675 3.10079956 279.37582397 C-14.55792743 279.37392939 -32.03284111 279.02573258 -49.52783203 276.43530273 C-50.71852295 276.26047363 -51.90921387 276.08564453 -53.13598633 275.90551758 C-73.01881455 272.86917765 -92.84551731 268.72780755 -109.71533203 257.18530273 C-110.29798828 256.79858398 -110.88064453 256.41186523 -111.48095703 256.01342773 C-116.03590663 252.65472753 -118.2717151 248.14068528 -120.71533203 243.18530273 C-121.04533203 242.52530273 -121.37533203 241.86530273 -121.71533203 241.18530273 C-122.75254662 229.25576346 -121.64126408 217.4003521 -119.46923828 205.67749023 C-118.53467936 200.54735826 -118.12167476 195.37994947 -117.71533203 190.18530273 C-164.05300873 191.09694616 -209.45464498 197.39117757 -254.71533203 207.18530273 C-255.95605469 207.45375 -257.19677734 207.72219727 -258.47509766 207.9987793 C-271.03410385 210.74840436 -283.4507764 213.76648997 -295.73095703 217.57641602 C-298.51841342 218.43172067 -301.31805043 219.24331262 -304.11791992 220.05688477 C-313.02141816 222.64732271 -321.87981311 225.37227141 -330.71533203 228.18530273 C-331.89160156 228.55880859 -333.06787109 228.93231445 -334.27978516 229.31713867 C-337.68886035 230.40045613 -341.09626797 231.48891419 -344.50286865 232.57998657 C-345.87704799 233.01961065 -347.25159182 233.45809726 -348.62652588 233.89535522 C-355.58831272 236.1111454 -362.49057045 238.38126646 -369.24658203 241.17285156 C-372.03267416 242.3154469 -374.84125248 243.38676035 -377.65673828 244.45483398 C-396.3701864 251.61461373 -414.56737341 259.7062358 -432.71533203 268.18530273 C-433.83439941 268.70688965 -434.9534668 269.22847656 -436.10644531 269.76586914 C-446.95908956 274.84077391 -457.62999363 280.15387983 -468.18579102 285.8190918 C-481.16619073 292.70121363 -493.86406985 297.10490173 -508.71533203 295.18530273 C-517.06963272 292.35881648 -522.03940586 286.36317845 -525.97705078 278.74389648 C-530.37823509 268.98354138 -532.91896397 258.49030278 -535.71533203 248.18530273 C-540.63583122 247.98749372 -544.35258985 248.48213639 -548.96533203 250.18530273 C-554.43755425 252.18530273 -554.43755425 252.18530273 -557.71533203 252.18530273 C-557.40080078 252.89170898 -557.08626953 253.59811523 -556.76220703 254.32592773 C-550.79566704 268.6312465 -544.23908022 289.80791534 -550.21533203 304.93530273 C-565.54462273 333.64386835 -597.19134074 347.79658837 -626.07958984 359.14379883 C-628.33243374 360.03400187 -630.56840109 360.9535786 -632.80126953 361.89233398 C-668.74209224 376.41426555 -711.96992331 382.27227269 -750.59033203 382.49780273 C-751.50000732 382.50344238 -752.40968262 382.50908203 -753.34692383 382.51489258 C-759.45655413 382.44408064 -759.45655413 382.44408064 -761.71533203 380.18530273 C-761.52295136 375.49602393 -759.26544881 373.14152835 -756.21533203 369.74780273 C-739.73412284 350.73010902 -728.59799463 326.5031256 -728.69677734 300.97949219 C-728.69945618 300.08108109 -728.70213501 299.18266998 -728.70489502 298.2570343 C-728.70833923 297.57336288 -728.71178345 296.88969147 -728.71533203 296.18530273 C-740.64336619 289.5172962 -752.68353837 283.10795217 -764.91845703 277.02124023 C-765.83427803 276.56548992 -765.83427803 276.56548992 -766.76860046 276.10053253 C-771.16465289 273.91467547 -775.56457684 271.73667262 -779.96533203 269.56030273 C-784.99396166 267.0733087 -790.02094424 264.58306816 -795.04345703 262.08374023 C-795.94231377 261.6365929 -795.94231377 261.6365929 -796.85932922 261.18041229 C-806.97962583 256.13698933 -816.91259511 250.81934156 -826.71533203 245.18530273 C-826.75805303 243.51918368 -826.75597035 241.85147389 -826.71533203 240.18530273 C-824.53558041 238.00555111 -819.57552559 238.61308968 -816.52783203 238.37280273 C-806.00052376 237.4645715 -795.74669634 235.69797911 -785.38305664 233.68432617 C-782.53062066 233.1507507 -779.67269294 232.67071528 -776.80908203 232.20092773 C-759.96980602 229.42698723 -743.46711876 225.87105072 -727.13476562 220.9128418 C-724.75721075 220.19789593 -722.37338713 219.5110456 -719.98486328 218.83374023 C-713.24374801 216.915076 -706.57785336 214.96003589 -700.12133789 212.20141602 C-697.82955053 211.23353991 -695.52215147 210.3251154 -693.20361328 209.42358398 C-678.51156642 203.55515838 -663.29453018 196.89761386 -650.71533203 187.18530273 C-649.68794922 186.39897461 -648.66056641 185.61264648 -647.60205078 184.80249023 C-642.05053814 180.82420864 -642.05053814 180.82420864 -638.71533203 175.18530273 C-639.51694257 173.18397059 -639.51694257 173.18397059 -640.84814453 171.12280273 C-641.3226001 170.33099609 -641.79705566 169.53918945 -642.28588867 168.72338867 C-642.79885498 167.88582031 -643.31182129 167.04825195 -643.84033203 166.18530273 C-658.5349129 141.52014566 -658.5349129 141.52014566 -656.71533203 129.18530273 C-654.17500502 120.44185163 -649.65263903 113.9547323 -643.71533203 107.18530273 C-642.55324219 105.72350586 -642.55324219 105.72350586 -641.36767578 104.23217773 C-638.66131547 100.98351436 -635.61195114 98.39467985 -632.27783203 95.81030273 C-631.67092529 95.3377002 -631.06401855 94.86509766 -630.4387207 94.37817383 C-615.8810644 83.29537739 -596.2072386 71.97814931 -577.43408203 72.74389648 C-569.40836245 74.04692279 -564.51808535 80.08323829 -559.71533203 86.18530273 C-557.45620394 89.53707435 -555.41756435 92.99481331 -553.40283203 96.49780273 C-552.84958252 97.44606934 -552.29633301 98.39433594 -551.72631836 99.37133789 C-546.44519621 108.49734773 -541.51652261 117.79967962 -536.71533203 127.18530273 C-530.68321843 125.30142319 -524.99634603 123.05019669 -519.27783203 120.37280273 C-498.13037112 110.70180811 -476.64160262 101.72889497 -454.45361328 94.73608398 C-451.66554414 93.85149952 -449.0674514 92.90753148 -446.37158203 91.75170898 C-440.99116238 89.44663604 -435.45595677 87.65285153 -429.90283203 85.81030273 C-428.69812256 85.409646 -427.49341309 85.00898926 -426.25219727 84.59619141 C-418.20965558 81.94651057 -410.14456508 79.52918969 -401.96533203 77.34545898 C-398.32602055 76.36956824 -394.73067887 75.28114445 -391.13256836 74.1640625 C-342.49705892 59.11201526 -342.49705892 59.11201526 -320.63330078 56.71655273 C-317.04942651 56.23060368 -314.11990116 55.3426761 -310.71533203 54.18530273 C-308.30622626 53.78290843 -305.88847267 53.42956203 -303.46533203 53.12280273 C-298.93781806 52.66242796 -298.93781806 52.66242796 -294.71533203 51.18530273 C-291.05290238 50.65250429 -287.38217521 50.22288255 -283.70751953 49.78295898 C-280.98629818 49.42044103 -278.392101 48.88378722 -275.73876953 48.18139648 C-271.67123908 47.11524199 -267.64292036 46.60696586 -263.46533203 46.18530273 C-258.69786555 45.69305954 -253.99176598 45.07785739 -249.27001953 44.24780273 C-242.02107136 43.01296614 -234.73942949 42.2136592 -227.43017578 41.43530273 C-225.14177871 41.19079954 -222.85434655 40.93847512 -220.56689453 40.68530273 C-215.62006952 40.14554985 -210.66888435 39.65886578 -205.71533203 39.18530273 C-204.77477966 39.09283264 -203.83422729 39.00036255 -202.86517334 38.90509033 C-184.64512172 37.15505316 -166.5424085 36.9326633 -148.26208496 37.04797363 C-144.57334811 37.06891469 -140.88458068 37.07766737 -137.19580078 37.08764648 C-130.03557413 37.10871254 -122.87546508 37.14256464 -115.71533203 37.18530273 C-115.57667725 36.23913086 -115.43802246 35.29295898 -115.29516602 34.31811523 C-114.22584313 28.54061996 -110.06278579 24.91351438 -105.44970703 21.51733398 C-87.42040902 10.20540346 -65.44748717 5.91828173 -44.65283203 3.06030273 C-43.4765625 2.89143555 -42.30029297 2.72256836 -41.08837891 2.54858398 C-27.33783102 0.6178824 -13.86899457 -0.00116801 0 0 Z M-11.48095703 7.28295898 C-39.06650337 7.82894224 -83.25196054 9.83522074 -104.69580078 30.05249023 C-108.93913001 34.91064864 -109.83724416 37.60204753 -109.71533203 44.18530273 C-110.49094482 44.1786409 -111.26655762 44.17197906 -112.06567383 44.16511536 C-165.47591623 43.51563164 -165.47591623 43.51563164 -218.71533203 47.18530273 C-219.58756409 47.2824054 -220.45979614 47.37950806 -221.35845947 47.47955322 C-250.71131245 50.76035372 -279.73638148 55.50934328 -308.71533203 61.18530273 C-309.88267883 61.41340637 -309.88267883 61.41340637 -311.0736084 61.64611816 C-315.93727092 62.59872481 -320.79645739 63.57119656 -325.65283203 64.56030273 C-326.82531494 64.7987793 -327.99779785 65.03725586 -329.20581055 65.28295898 C-330.80187134 65.6174707 -330.80187134 65.6174707 -332.43017578 65.95874023 C-333.79323853 66.24370361 -333.79323853 66.24370361 -335.18383789 66.53442383 C-337.74578411 67.13420301 -337.74578411 67.13420301 -340.2121582 68.19140625 C-342.83229915 69.23174506 -345.28312405 69.7903163 -348.05126953 70.31420898 C-373.46436562 75.44036799 -397.99674265 83.4485437 -422.68261719 91.28173828 C-428.08744703 92.99672407 -433.50892649 94.65380839 -438.93656921 96.2950592 C-442.32478135 97.38055449 -445.46500642 98.74071357 -448.71533203 100.18530273 C-451.80232784 101.31874767 -454.91576615 102.37297164 -458.02783203 103.43530273 C-483.29705947 112.20156649 -508.01269564 122.6832489 -532.37939453 133.69702148 C-535.13745219 134.92748983 -537.90117718 136.09090918 -540.71533203 137.18530273 C-540.98990234 136.3085791 -541.26447266 135.43185547 -541.54736328 134.52856445 C-543.41153746 129.1924438 -546.10025035 124.31152507 -548.71533203 119.31030273 C-549.29621582 118.19856689 -549.87709961 117.08683105 -550.47558594 115.94140625 C-560.39523972 95.89215718 -560.39523972 95.89215718 -575.71533203 80.18530273 C-582.78990373 79.18577609 -589.11852479 80.75593959 -595.71533203 83.18530273 C-596.61767578 83.50241211 -597.52001953 83.81952148 -598.44970703 84.14624023 C-618.57672804 91.81626716 -638.56803402 106.31341925 -648.27783203 125.93530273 C-651.25740313 133.66011669 -649.74980439 139.53417423 -646.76611328 146.99780273 C-643.56795968 153.93211708 -639.33744568 160.42470593 -635.265625 166.87084961 C-634.65219238 167.87180664 -634.03875977 168.87276367 -633.40673828 169.90405273 C-632.84156494 170.8005957 -632.2763916 171.69713867 -631.6940918 172.62084961 C-630.71533203 175.18530273 -630.71533203 175.18530273 -631.43115234 177.87011719 C-639.50771807 192.43096752 -658.49424084 200.94488416 -672.71533203 208.18530273 C-674.03791016 208.89299805 -674.03791016 208.89299805 -675.38720703 209.61499023 C-681.08375793 212.61219512 -686.93803387 214.80129428 -693.02783203 216.87670898 C-695.8904466 217.89257327 -698.67422978 218.97680603 -701.48095703 220.13061523 C-706.72521167 222.24343335 -712.03632017 223.92846452 -717.46533203 225.49780273 C-718.4846582 225.79340088 -719.50398438 226.08899902 -720.55419922 226.39355469 C-733.8182697 230.16125908 -747.25251547 233.22078281 -760.71533203 236.18530273 C-762.16262695 236.5045874 -762.16262695 236.5045874 -763.63916016 236.83032227 C-776.57523259 239.64551242 -789.58261574 241.54772033 -802.71533203 243.18530273 C-803.91125977 243.33539795 -803.91125977 243.33539795 -805.13134766 243.48852539 C-806.99255023 243.72178849 -808.85392105 243.95370858 -810.71533203 244.18530273 C-810.71533203 244.84530273 -810.71533203 245.50530273 -810.71533203 246.18530273 C-802.15644655 250.90418272 -793.48413723 255.30977643 -784.65283203 259.49780273 C-763.26523494 269.65339366 -742.24111086 280.37250757 -721.71533203 292.18530273 C-720.87914968 320.95616963 -728.8150628 347.24017547 -746.96533203 369.86499023 C-748.87951871 372.14656803 -748.87951871 372.14656803 -749.71533203 375.18530273 C-703.05337447 376.95727581 -647.91751914 365.32306886 -606.61230469 343.19262695 C-604.71528779 342.18527924 -602.80291804 341.21518754 -600.88330078 340.25170898 C-583.88781848 331.62323335 -563.17756108 319.09986357 -556.71533203 300.18530273 C-555.96410131 296.67000172 -555.86159589 293.69152728 -556.71533203 290.18530273 C-561.26828218 284.04385401 -568.6183374 280.1148092 -575.01611328 276.14233398 C-578.39435522 273.69298635 -581.14947011 271.24582062 -582.28173828 267.12280273 C-582.27419571 263.38168783 -582.06010228 261.65241082 -579.77783203 258.56030273 C-578.26189453 257.38467773 -578.26189453 257.38467773 -576.71533203 256.18530273 C-576.11849609 255.71479492 -575.52166016 255.24428711 -574.90673828 254.75952148 C-563.76001634 246.60492528 -545.55986909 239.09945669 -531.71533203 240.18530273 C-528.08460792 247.86394597 -526.09234842 256.05764417 -523.85205078 264.22631836 C-520.82068722 274.847886 -517.29267631 282.88464788 -507.40283203 288.49780273 C-491.66598389 292.52350807 -475.05309069 281.64347589 -461.58276367 274.72109985 C-456.48158772 272.10303793 -451.36035493 269.5248719 -446.23876953 266.94702148 C-445.23380432 266.44079758 -444.22883911 265.93457367 -443.19342041 265.41300964 C-421.24325465 254.3917009 -398.59240307 245.08779669 -375.71533203 236.18530273 C-374.55227539 235.7304248 -373.38921875 235.27554688 -372.19091797 234.80688477 C-366.82500427 232.72149905 -361.4929911 230.68350421 -355.96533203 229.06030273 C-350.8462678 227.5282751 -345.77638719 225.8974069 -340.71533203 224.18530273 C-340.00119141 223.95069336 -339.28705078 223.71608398 -338.55126953 223.47436523 C-334.52641635 222.1517103 -330.55252021 220.74827636 -326.59033203 219.24780273 C-321.68002374 217.44735636 -316.71953023 216.05470041 -311.65698242 214.74926758 C-307.75473115 213.73995621 -303.88917969 212.65507751 -300.03222656 211.48071289 C-266.70913076 201.37419541 -232.382137 194.86377611 -197.96533203 189.81030273 C-197.14449127 189.68887909 -196.32365051 189.56745544 -195.47793579 189.44235229 C-174.49766174 186.36705749 -153.58585976 184.84717891 -132.40283203 184.06030273 C-130.18601418 183.97359793 -127.96921707 183.88636093 -125.75244141 183.79858398 C-120.40696073 183.58805105 -115.06126604 183.38397428 -109.71533203 183.18530273 C-109.9425293 184.77060791 -109.9425293 184.77060791 -110.17431641 186.38793945 C-110.74599168 190.4008813 -111.30097946 194.4159995 -111.8515625 198.43188477 C-112.0897 200.15254809 -112.33205091 201.87263481 -112.57910156 203.59204102 C-113.88372431 212.69245033 -114.96138529 221.74226619 -115.12158203 230.94311523 C-115.1456311 231.65676239 -115.16968018 232.37040955 -115.19445801 233.10568237 C-115.19266983 239.16556549 -113.26366759 244.26065662 -109.25939941 248.85623169 C-95.03176517 262.80818639 -71.25466453 266.02391441 -52.52783203 268.99780273 C-51.23506348 269.2048584 -49.94229492 269.41191406 -48.61035156 269.62524414 C-29.89192898 272.4246353 -11.04711021 272.45851881 7.84716797 272.49780273 C9.05755737 272.50042114 10.26794678 272.50303955 11.51501465 272.5057373 C31.08932792 272.51025987 49.9879574 271.54215732 69.28466797 268.18530273 C70.2350293 268.0304541 71.18539062 267.87560547 72.16455078 267.71606445 C90.14400693 264.73489499 110.90338751 259.45661848 123.00732422 245.01733398 C125.83133362 240.96699635 125.4770836 236.66758515 125.47216797 231.93530273 C125.4713623 231.12681885 125.47055664 230.31833496 125.46972656 229.48535156 C125.40796981 223.32602378 124.79190002 217.3791529 123.86279297 211.28686523 C123.09338584 206.12869701 122.6394337 200.93946009 122.15966797 195.74780273 C122.02842529 194.33277466 122.02842529 194.33277466 121.89453125 192.88916016 C121.68893904 190.65474096 121.48551706 188.42015253 121.28466797 186.18530273 C124.4101265 186.30243037 127.53479504 186.42900555 130.65966797 186.56030273 C131.93583984 186.60670898 131.93583984 186.60670898 133.23779297 186.65405273 C141.44369264 187.01083098 149.5665221 187.95396409 157.72033691 188.89489746 C162.28976993 189.41237645 166.86363134 189.88780957 171.43701172 190.36889648 C174.37546395 190.68126982 177.31383196 190.99442732 180.25219727 191.30761719 C182.23022006 191.51753313 184.2084111 191.72586973 186.18676758 191.93261719 C196.39701274 193.00129795 206.58120553 194.13611406 216.72607422 195.72045898 C217.47638412 195.83683212 218.22669403 195.95320526 218.9997406 196.07310486 C223.84169408 196.85995097 228.53288226 197.96937031 233.28466797 199.18530273 C236.62818606 199.70057093 239.97371097 200.11536367 243.33154297 200.52514648 C247.63076126 201.15591983 251.79221797 202.28859139 255.99707031 203.3671875 C261.70635402 204.78793677 267.46546765 205.9740299 273.22216797 207.18530273 C294.62978705 211.70455822 315.55251182 217.18108309 336.47216797 223.56030273 C339.22091043 224.39595551 341.96987111 225.23088712 344.71887207 226.06568909 C346.5339146 226.61712121 348.34877633 227.16914879 350.16345215 227.7217865 C354.74025555 229.11459076 359.31991224 230.49662436 363.90576172 231.859375 C365.26439079 232.2637529 365.26439079 232.2637529 366.65046692 232.67630005 C368.36266241 233.18515101 370.07542651 233.69209425 371.78886414 234.19674683 C376.69470074 235.65558055 381.43252305 237.31611854 386.14404297 239.32592773 C388.45313512 240.25293553 390.76598232 240.94534453 393.15966797 241.62280273 C396.80501534 242.67219256 400.24560128 243.95036941 403.73388672 245.43920898 C408.13566441 247.29547347 412.55257025 249.0961825 416.99951172 250.84155273 C437.44856918 258.88036224 457.52774015 267.59978786 477.38623047 277.01342773 C478.05962463 277.33159454 478.7330188 277.64976135 479.42681885 277.97756958 C482.66595449 279.50804872 485.90058893 281.04649427 489.12646484 282.60473633 C499.7877086 287.66926814 511.57124656 292.85733388 523.54248047 289.56420898 C531.34644178 286.22601261 535.01403147 279.29871363 538.25439453 271.84082031 C540.21251683 266.7937833 541.60868965 261.59016976 543.03466797 256.37280273 C543.35048828 255.25454102 543.66630859 254.1362793 543.99169922 252.98413086 C545.75368362 246.68103004 545.75368362 246.68103004 546.28466797 240.18530273 C565.04569505 240.96538702 581.67160389 247.89146605 596.65966797 258.93530273 C598.6144476 261.64192069 598.98994843 263.78913584 598.76904297 267.11499023 C597.16899107 273.95392172 590.78088951 277.32977683 585.22216797 280.81030273 C584.62065918 281.17051514 584.01915039 281.53072754 583.39941406 281.90185547 C576.59453001 285.92391146 576.59453001 285.92391146 572.58544922 292.43920898 C572.63844186 302.87875949 577.47785119 310.91515237 584.65966797 318.24780273 C600.69776197 333.74133932 621.90164858 344.73853548 642.83154297 351.96655273 C645.89028277 353.04610796 648.77412957 354.27808346 651.72216797 355.62280273 C675.23738059 365.53233 702.04686741 370.19667805 727.28466797 373.18530273 C728.16396973 373.2897168 729.04327148 373.39413086 729.94921875 373.50170898 C742.09750115 374.89892727 754.06068696 375.45396166 766.28466797 375.18530273 C764.7946862 371.92082005 762.9056059 369.27597754 760.72216797 366.43530273 C748.64756029 349.93406937 741.23657113 332.40265391 738.28466797 312.18530273 C738.09517578 310.95811523 737.90568359 309.73092773 737.71044922 308.46655273 C737.03739443 303.0606411 737.20311057 297.62246287 737.28466797 292.18530273 C754.51282262 282.96762998 771.7463467 273.80309696 789.28466797 265.18530273 C791.97447101 263.85657428 794.66173862 262.52284735 797.34716797 261.18530273 C798.29015747 260.71616455 798.29015747 260.71616455 799.25219727 260.23754883 C805.58250682 257.0695813 811.83626257 253.75677492 818.07983398 250.42163086 C818.84481201 250.01493164 819.60979004 249.60823242 820.39794922 249.18920898 C821.07639893 248.82641846 821.75484863 248.46362793 822.45385742 248.08984375 C824.28466797 247.18530273 824.28466797 247.18530273 827.28466797 246.18530273 C827.28466797 245.52530273 827.28466797 244.86530273 827.28466797 244.18530273 C826.70950439 244.12060791 826.13434082 244.05591309 825.54174805 243.98925781 C788.96674054 239.80730828 751.75409944 233.56817435 717.28466797 220.18530273 C716.53902588 219.896875 715.79338379 219.60844727 715.02514648 219.3112793 C659.35473067 197.62821162 659.35473067 197.62821162 647.28466797 178.18530273 C647.27073041 173.05628009 649.7121742 169.3708402 652.40966797 165.18530273 C663.30183566 147.96065531 663.30183566 147.96065531 665.28466797 128.18530273 C662.31377485 119.81690914 656.46165171 113.38243977 650.28466797 107.18530273 C649.54603516 106.4234668 648.80740234 105.66163086 648.04638672 104.87670898 C641.50209051 98.53039149 634.11427246 94.33604264 626.1015625 90.14282227 C624.57436611 89.33797622 623.06574609 88.49801967 621.56201172 87.65014648 C613.3590858 83.17208843 599.73374634 77.64620298 590.28466797 80.18530273 C572.18375589 88.83244077 561.47385098 119.16042227 553.28466797 136.18530273 C547.94721149 135.55883572 543.44698598 133.81716175 538.52294922 131.79077148 C536.76249725 131.08033187 535.00191215 130.37022208 533.24121094 129.66040039 C531.85986969 129.10005096 531.85986969 129.10005096 530.45062256 128.52838135 C510.28353052 120.36120731 489.94148029 113.00447629 469.28466797 106.18530273 C467.81968185 105.69093274 466.35481696 105.19620321 464.89013672 104.70092773 C457.70001583 102.30478364 450.45393454 100.07687312 443.22216797 97.81030273 C440.96122895 97.10064543 438.70035601 96.39077785 436.43948364 95.6809082 C434.93259261 95.20823494 433.42549044 94.73623427 431.91818237 94.26489258 C428.36969457 93.15523015 424.82339418 92.03993119 421.28320312 90.90405273 C410.86991828 87.57714494 400.36174537 84.69324866 389.78466797 81.93530273 C388.88603027 81.70018982 387.98739258 81.4650769 387.06152344 81.22283936 C333.36574282 67.21314348 278.77578378 57.123189 223.65966797 50.68530273 C222.71401978 50.57480591 221.76837158 50.46430908 220.79406738 50.35046387 C204.97549208 48.51428991 189.18933883 47.05259417 173.28466797 46.18530273 C172.35058105 46.12890625 171.41649414 46.07250977 170.45410156 46.0144043 C152.07765592 44.91214367 133.6855903 45.08276866 115.28466797 45.18530273 C115.33349609 43.20369466 115.38232422 41.22208659 115.43115234 39.24047852 C115.1293647 35.00639794 112.63497998 32.42758978 109.62451172 29.65795898 C98.91661471 21.01688398 85.30647628 17.76003546 72.28466797 14.18530273 C70.92571411 13.80426392 70.92571411 13.80426392 69.53930664 13.41552734 C61.27696624 11.20903168 52.95106423 9.98712767 44.47216797 8.99780273 C43.73844971 8.91092194 43.00473145 8.82404114 42.2487793 8.73452759 C24.27814042 6.6507754 6.58828823 7.03126129 -11.48095703 7.28295898 Z " fill="#CCAE71" transform="translate(879.71533203125,232.814697265625)"/>
<path d="M0 0 C1.03143261 2.55771439 1.86340405 4.98762143 2.625 7.625 C2.8415625 8.32496094 3.058125 9.02492188 3.28125 9.74609375 C4.60568172 14.15269065 5.46039095 18.43131002 6 23 C1.94388206 21.57667134 -1.17537252 19.61408397 -4.625 17.0625 C-5.56601562 16.37285156 -6.50703125 15.68320312 -7.4765625 14.97265625 C-11.43950085 11.8746936 -11.43950085 11.8746936 -13 10 C-13 7.5625 -13 7.5625 -12 5 C-4.96478873 -1.65492958 -4.96478873 -1.65492958 0 0 Z " fill="#FAF8F4" transform="translate(317,490)"/>
<path d="M0 0 C4.12259123 1.4550322 7.57054699 3.27202602 11 6 C11.875 8.75 11.875 8.75 12 11 C-2.58536585 24 -2.58536585 24 -7 24 C-5.75856564 17.82203844 -4.08148525 11.94392045 -2 6 C-1.608125 4.824375 -1.21625 3.64875 -0.8125 2.4375 C-0.4103125 1.2309375 -0.4103125 1.2309375 0 0 Z " fill="#FBF9F5" transform="translate(1460,489)"/>
<path d="M0 0 C-4.43076923 2.09230769 -4.43076923 2.09230769 -7.3125 1.625 C-7.869375 1.41875 -8.42625 1.2125 -9 1 C-9.33 1.99 -9.66 2.98 -10 4 C-9.01 4.99 -8.02 5.98 -7 7 C-11.75 8.125 -11.75 8.125 -14 7 C-13.67 6.01 -13.34 5.02 -13 4 C-15.97 4 -18.94 4 -22 4 C-18.5989125 1.73260834 -15.49364674 1.07762252 -11.5625 0.3125 C-10.89412109 0.17005859 -10.22574219 0.02761719 -9.53710938 -0.11914062 C-6.08640357 -0.80654585 -3.34010306 -1.272827 0 0 Z " fill="#D2B781" transform="translate(638,431)"/>
<path d="M0 0 C0 0.99 0 1.98 0 3 C0.66 3 1.32 3 2 3 C2 3.66 2 4.32 2 5 C-0.64 5.33 -3.28 5.66 -6 6 C-6 4.68 -6 3.36 -6 2 C-6.66 1.67 -7.32 1.34 -8 1 C-4.93251126 -0.86240388 -3.40254489 -1.2151946 0 0 Z " fill="#C9A967" transform="translate(286,311)"/>
<path d="M0 0 C-1.32 1.32 -2.64 2.64 -4 4 C-3.01 4.33 -2.02 4.66 -1 5 C-3.31 5.33 -5.62 5.66 -8 6 C-7.67 4.02 -7.34 2.04 -7 0 C-3.86650268 -1.04449911 -3.01031744 -0.93423645 0 0 Z " fill="#C9A868" transform="translate(517,302)"/>
<path d="M0 0 C-0.93972656 0.19916016 -0.93972656 0.19916016 -1.8984375 0.40234375 C-3.12433594 0.66724609 -3.12433594 0.66724609 -4.375 0.9375 C-5.18710937 1.11152344 -5.99921875 1.28554688 -6.8359375 1.46484375 C-9.029463 1.92330693 -9.029463 1.92330693 -11 3 C-13.00800456 2.71887936 -15.01014051 2.38932033 -17 2 C-17 1.67 -17 1.34 -17 1 C-14.91835982 0.63601378 -12.83459438 0.28416713 -10.75 -0.0625 C-9.00976562 -0.35833984 -9.00976562 -0.35833984 -7.234375 -0.66015625 C-4.37477376 -0.9606216 -2.66674071 -0.9439206 0 0 Z " fill="#DBC698" transform="translate(619,280)"/>
<path d="M0 0 C0 0.66 0 1.32 0 2 C-5.45769231 5.10096154 -5.45769231 5.10096154 -8.203125 4.58984375 C-8.79609375 4.39519531 -9.3890625 4.20054687 -10 4 C-8.71086513 3.32845067 -7.41859796 2.66291141 -6.125 2 C-5.40570313 1.62875 -4.68640625 1.2575 -3.9453125 0.875 C-2 0 -2 0 0 0 Z " fill="#D1B883" transform="translate(209,433)"/>
</svg>
