<svg width="24" height="24" viewBox="0 0 24 24" fill="none" xmlns="http://www.w3.org/2000/svg">
<mask id="path-1-outside-1_1_32" maskUnits="userSpaceOnUse" x="2.60107" y="2.59991" width="20" height="20" fill="black">
<rect fill="white" x="2.60107" y="2.59991" width="20" height="20"/>
<path d="M16.476 17.3232C14.9445 18.6353 12.9643 19.3033 10.9509 19.1869C8.93759 19.0705 7.04757 18.1789 5.67747 16.699C4.30737 15.2191 3.56371 13.2661 3.60252 11.2498C3.64133 9.23346 4.45961 7.31052 5.88564 5.88448C7.31168 4.45845 9.23462 3.64017 11.251 3.60136C13.2673 3.56255 15.2203 4.30621 16.7002 5.67631C18.18 7.04641 19.0717 8.93643 19.1881 10.9498C19.3045 12.9631 18.6365 14.9433 17.3244 16.4748L21.4236 20.5764C21.5272 20.6827 21.5878 20.8236 21.5936 20.972C21.5994 21.1203 21.55 21.2656 21.4549 21.3796C21.3598 21.4936 21.2259 21.5684 21.0789 21.5893C20.9319 21.6103 20.7824 21.5761 20.6592 21.4932L20.5752 21.4248L16.476 17.3232ZM15.624 16.4712C15.932 16.2152 16.2148 15.9328 16.4724 15.624C17.5592 14.3188 18.1011 12.6449 17.9852 10.9504C17.8694 9.25593 17.1047 7.67133 15.8503 6.52623C14.596 5.38113 12.9484 4.76369 11.2504 4.80233C9.55241 4.84098 7.93466 5.53274 6.73368 6.73372C5.5327 7.9347 4.84094 9.55245 4.80229 11.2505C4.76365 12.9485 5.38109 14.596 6.52619 15.8504C7.67129 17.1048 9.25589 17.8694 10.9504 17.9853C12.6449 18.1011 14.3188 17.5593 15.624 16.4724"/>
</mask>
<path d="M16.476 17.3232C14.9445 18.6353 12.9643 19.3033 10.9509 19.1869C8.93759 19.0705 7.04757 18.1789 5.67747 16.699C4.30737 15.2191 3.56371 13.2661 3.60252 11.2498C3.64133 9.23346 4.45961 7.31052 5.88564 5.88448C7.31168 4.45845 9.23462 3.64017 11.251 3.60136C13.2673 3.56255 15.2203 4.30621 16.7002 5.67631C18.18 7.04641 19.0717 8.93643 19.1881 10.9498C19.3045 12.9631 18.6365 14.9433 17.3244 16.4748L21.4236 20.5764C21.5272 20.6827 21.5878 20.8236 21.5936 20.972C21.5994 21.1203 21.55 21.2656 21.4549 21.3796C21.3598 21.4936 21.2259 21.5684 21.0789 21.5893C20.9319 21.6103 20.7824 21.5761 20.6592 21.4932L20.5752 21.4248L16.476 17.3232ZM15.624 16.4712C15.932 16.2152 16.2148 15.9328 16.4724 15.624C17.5592 14.3188 18.1011 12.6449 17.9852 10.9504C17.8694 9.25593 17.1047 7.67133 15.8503 6.52623C14.596 5.38113 12.9484 4.76369 11.2504 4.80233C9.55241 4.84098 7.93466 5.53274 6.73368 6.73372C5.5327 7.9347 4.84094 9.55245 4.80229 11.2505C4.76365 12.9485 5.38109 14.596 6.52619 15.8504C7.67129 17.1048 9.25589 17.8694 10.9504 17.9853C12.6449 18.1011 14.3188 17.5593 15.624 16.4724" fill="black"/>
<path d="M16.476 17.3232L17.1833 16.6163L16.5286 15.9613L15.8253 16.5638L16.476 17.3232ZM17.3244 16.4748L16.565 15.8242L15.9628 16.5271L16.6171 17.1817L17.3244 16.4748ZM21.4236 20.5764L22.1395 19.8781L22.1309 19.8695L21.4236 20.5764ZM20.6592 21.4932L20.0278 22.2686L20.0631 22.2975L20.101 22.3229L20.6592 21.4932ZM20.5752 21.4248L19.8679 22.1317L19.9041 22.1679L19.9438 22.2003L20.5752 21.4248ZM16.4724 15.624L17.2403 16.2646L17.2408 16.2639L16.4724 15.624ZM16.476 17.3232L15.8253 16.5638C14.4902 17.7077 12.7639 18.29 11.0087 18.1886L10.9509 19.1869L10.8932 20.1852C13.1647 20.3166 15.3988 19.563 17.1266 18.0826L16.476 17.3232ZM10.9509 19.1869L11.0087 18.1886C9.25343 18.0871 7.60571 17.3098 6.41127 16.0196L5.67747 16.699L4.94368 17.3784C6.48943 19.048 8.62176 20.0539 10.8932 20.1852L10.9509 19.1869ZM5.67747 16.699L6.41127 16.0196C5.21682 14.7295 4.5685 13.0269 4.60234 11.269L3.60252 11.2498L2.60271 11.2306C2.55892 13.5054 3.39793 15.7088 4.94368 17.3784L5.67747 16.699ZM3.60252 11.2498L4.60234 11.269C4.63617 9.51121 5.34954 7.8348 6.59275 6.59159L5.88564 5.88448L5.17854 5.17738C3.56968 6.78623 2.64649 8.95571 2.60271 11.2306L3.60252 11.2498ZM5.88564 5.88448L6.59275 6.59159C7.83596 5.34838 9.51237 4.63501 11.2702 4.60118L11.251 3.60136L11.2317 2.60155C8.95687 2.64534 6.78739 3.56852 5.17854 5.17738L5.88564 5.88448ZM11.251 3.60136L11.2702 4.60118C13.028 4.56734 14.7307 5.21566 16.0208 6.41011L16.7002 5.67631L17.3795 4.94252C15.71 3.39677 13.5066 2.55776 11.2317 2.60155L11.251 3.60136ZM16.7002 5.67631L16.0208 6.41011C17.3109 7.60455 18.0883 9.25227 18.1897 11.0075L19.1881 10.9498L20.1864 10.8921C20.0551 8.6206 19.0491 6.48827 17.3795 4.94252L16.7002 5.67631ZM19.1881 10.9498L18.1897 11.0075C18.2912 12.7627 17.7089 14.489 16.565 15.8242L17.3244 16.4748L18.0838 17.1254C19.5641 15.3976 20.3177 13.1636 20.1864 10.8921L19.1881 10.9498ZM17.3244 16.4748L16.6171 17.1817L20.7163 21.2833L21.4236 20.5764L22.1309 19.8695L18.0317 15.7679L17.3244 16.4748ZM21.4236 20.5764L20.7077 21.2747C20.6386 21.2038 20.5982 21.1099 20.5944 21.011L21.5936 20.972L22.5929 20.933C22.5774 20.5374 22.4159 20.1616 22.1394 19.8781L21.4236 20.5764ZM21.5936 20.972L20.5944 21.011C20.5905 20.9121 20.6235 20.8152 20.6869 20.7392L21.4549 21.3796L22.223 22.02C22.4765 21.7159 22.6083 21.3286 22.5929 20.933L21.5936 20.972ZM21.4549 21.3796L20.6869 20.7392C20.7502 20.6632 20.8396 20.6134 20.9375 20.5994L21.0789 21.5893L21.2202 22.5793C21.6121 22.5234 21.9694 22.3241 22.223 22.02L21.4549 21.3796ZM21.0789 21.5893L20.9375 20.5994C21.0355 20.5854 21.1352 20.6082 21.2173 20.6635L20.6592 21.4932L20.101 22.3229C20.4295 22.5439 20.8283 22.6353 21.2202 22.5793L21.0789 21.5893ZM20.6592 21.4932L21.2906 20.7178L21.2066 20.6494L20.5752 21.4248L19.9438 22.2003L20.0278 22.2686L20.6592 21.4932ZM20.5752 21.4248L21.2825 20.7179L17.1833 16.6163L16.476 17.3232L15.7687 18.0301L19.8679 22.1317L20.5752 21.4248ZM15.624 16.4712L16.2632 17.2403C16.6181 16.9453 16.9439 16.6198 17.2403 16.2646L16.4724 15.624L15.7045 14.9834C15.4856 15.2458 15.2459 15.4852 14.9848 15.7022L15.624 16.4712ZM16.4724 15.624L17.2408 16.2639C18.4923 14.761 19.1163 12.8334 18.9829 10.8822L17.9852 10.9504L16.9875 11.0186C17.0858 12.4564 16.6261 13.8767 15.7039 14.9841L16.4724 15.624ZM17.9852 10.9504L18.9829 10.8822C18.8495 8.93098 17.969 7.10629 16.5245 5.78769L15.8503 6.52623L15.1761 7.26478C16.2405 8.23638 16.8892 9.58089 16.9875 11.0186L17.9852 10.9504ZM15.8503 6.52623L16.5245 5.78769C15.0801 4.46909 13.1829 3.75809 11.2277 3.80259L11.2504 4.80233L11.2732 5.80208C12.7139 5.76929 14.1118 6.29318 15.1761 7.26478L15.8503 6.52623ZM11.2504 4.80233L11.2277 3.80259C9.27238 3.84709 7.40952 4.64367 6.02657 6.02661L6.73368 6.73372L7.44079 7.44083C8.4598 6.42181 9.83244 5.83487 11.2732 5.80208L11.2504 4.80233ZM6.73368 6.73372L6.02657 6.02661C4.64363 7.40956 3.84705 9.27242 3.80255 11.2277L4.80229 11.2505L5.80204 11.2732C5.83483 9.83248 6.42177 8.45984 7.44079 7.44083L6.73368 6.73372ZM4.80229 11.2505L3.80255 11.2277C3.75805 13.183 4.46905 15.0801 5.78765 16.5246L6.52619 15.8504L7.26474 15.1762C6.29314 14.1119 5.76925 12.7139 5.80204 11.2732L4.80229 11.2505ZM6.52619 15.8504L5.78765 16.5246C7.10625 17.969 8.93094 18.8495 10.8822 18.9829L10.9504 17.9853L11.0186 16.9876C9.58085 16.8893 8.23634 16.2405 7.26474 15.1762L6.52619 15.8504ZM10.9504 17.9853L10.8822 18.9829C12.8334 19.1163 14.761 18.4924 16.2639 17.2409L15.624 16.4724L14.9841 15.704C13.8766 16.6261 12.4563 17.0859 11.0186 16.9876L10.9504 17.9853Z" fill="black" mask="url(#path-1-outside-1_1_32)"/>
</svg>
