<svg width="108" height="91" viewBox="-12 0 116 91" fill="none" xmlns="http://www.w3.org/2000/svg">
    <path d="M15.738 15.0385L8.97093 15.401C7.08585 15.5019 5.22473 14.8046 3.85737 13.5031C1.60854 11.3625 1.07187 7.93657 2.60054 5.23427C3.02311 4.48727 3.58384 3.82741 4.25286 3.28984L4.38323 3.18508C5.7405 2.09449 7.42945 1.5 9.17059 1.5H12.9607M15.738 15.0385V60.8609V89.5M15.738 15.0385V12.6086C15.738 8.73389 14.7842 4.91878 12.9607 1.5M76.3755 36.9083V32.7426V25.4527V18.1627V9.9027C76.3755 7.84419 75.6192 5.85622 74.2515 4.31772C73.515 3.48923 72.6213 2.81428 71.6227 2.33287C70.4857 1.78469 69.2397 1.5 67.9774 1.5H13.8865H12.9607M76.3755 36.9083L87.3325 24.8907C92.2176 19.5326 98.8199 16.0481 106 15.0385M76.3755 36.9083V51.4882M76.3755 36.9083L71.1984 44.8123C70.3307 46.1369 69.5597 47.5223 68.8913 48.9578L67.6875 51.543C65.8047 55.5866 65.1249 60.0866 65.7293 64.5059M106 15.0385L105.195 18.4328C104.5 21.3676 103.474 24.2143 102.139 26.9186L98.5448 34.1959C97.653 36.0016 96.6262 37.7373 95.473 39.3883L87.0218 51.4882M106 15.0385L99.0568 22.8491L91.6507 31.1805M87.0218 51.4882L76.3755 60.8609M87.0218 51.4882H76.3755M76.3755 60.8609V79.7997C76.3755 82.0323 75.6054 84.1966 74.1951 85.9273C72.3529 88.188 69.5915 89.5 66.6753 89.5H15.738M76.3755 60.8609L65.7293 64.5059M7.869 89.5H15.738M91.6507 31.1805L90.262 22.8491M91.6507 31.1805L97.3423 36.5879M91.6507 31.1805L76.3755 51.4882M76.3755 51.4882L65.7293 64.5059M65.7293 64.5059L57.7445 76.4822L57.3974 77.003L58.786 74.9201"
          stroke="#B8860B" stroke-width="4" stroke-linecap="round"/>
    <path d="M28 76.95H56" stroke="#B8860B" stroke-width="3" stroke-linecap="round"/>
    <path d="M28 64.1978H62.5" stroke="#B8860B" stroke-width="3" stroke-linecap="round"/>
    <path d="M28.5 51.9771H63.5" stroke="#B8860B" stroke-width="3" stroke-linecap="round"/>
    <path d="M45.8457 9.5V32.4719" stroke="#C98D1C" stroke-width="4" stroke-linecap="round"/>
    <path d="M42.3584 24.7307L48.4602 28.1153" stroke="#C98D1C" stroke-width="4" stroke-linecap="round"/>
    <path d="M38 15.4231H54.025" stroke="#C98D1C" stroke-width="4" stroke-linecap="round"/>
</svg>
